<svg xmlns="http://www.w3.org/2000/svg" xmlns:xlink="http://www.w3.org/1999/xlink" viewBox="0 0 1366 768"><defs><style>.cls-1{fill:none;}.cls-2{clip-path:url(#clip-path);}.cls-3{fill:url(#linear-gradient);}.cls-14,.cls-15,.cls-16,.cls-4,.cls-5{opacity:0.76;}.cls-4{fill:url(#Degradado_sin_nombre_8);}.cls-5{fill:url(#Degradado_sin_nombre_8-2);}.cls-6{font-size:48.94px;font-family:Montserrat-Bold, Montserrat;font-weight:700;}.cls-20,.cls-6{fill:#fff;}.cls-7{letter-spacing:-0.04em;}.cls-8{letter-spacing:0em;}.cls-9{font-size:20.39px;font-family:Montserrat-Regular, Montserrat;}.cls-17,.cls-9{fill:#a3d0ff;}.cls-10{letter-spacing:-0.02em;}.cls-11{letter-spacing:-0.02em;}.cls-12{letter-spacing:-0.02em;}.cls-13{letter-spacing:-0.01em;}.cls-14{fill:url(#Degradado_sin_nombre_8-3);}.cls-15{fill:url(#Degradado_sin_nombre_8-4);}.cls-16{fill:url(#Degradado_sin_nombre_8-5);}.cls-18{fill:#3a558f;}.cls-19{fill:#dff6f6;}.cls-21{fill:#293f6c;}.cls-22{fill:#f9b02b;}.cls-23{opacity:0.19;}.cls-24{fill:#f29663;}.cls-25{opacity:0.25;}.cls-26{fill:#b7724a;}.cls-27{fill:#1f262f;}.cls-28{fill:#ffe396;}.cls-29{fill:#303030;opacity:0.17;}.cls-30{fill:#2d3541;}.cls-31{fill:#3f4959;}.cls-32{fill:#676e7b;}.cls-33{fill:#d78759;}</style><clipPath id="clip-path"><rect class="cls-1" width="1366" height="3840"/></clipPath><linearGradient id="linear-gradient" y1="378.19" x2="1366" y2="378.19" gradientUnits="userSpaceOnUse"><stop offset="0" stop-color="#215273"/><stop offset="0.28" stop-color="#359d9e"/><stop offset="0.66" stop-color="#55c595"/><stop offset="1" stop-color="#7be595"/></linearGradient><linearGradient id="Degradado_sin_nombre_8" x1="314" y1="705.99" x2="1465.04" y2="705.99" gradientUnits="userSpaceOnUse"><stop offset="0" stop-color="#fff"/><stop offset="0.08" stop-color="#f7fbfa"/><stop offset="0.27" stop-color="#eaf3f2"/><stop offset="0.51" stop-color="#e2efed"/><stop offset="1" stop-color="#e0eeec"/></linearGradient><linearGradient id="Degradado_sin_nombre_8-2" x1="485.28" y1="861.34" x2="1569.12" y2="861.34" gradientTransform="translate(131.75 -342.71) rotate(16.63)" xlink:href="#Degradado_sin_nombre_8"/><linearGradient id="Degradado_sin_nombre_8-3" x1="1142.75" y1="-35.8" x2="1168.48" y2="-35.8" xlink:href="#Degradado_sin_nombre_8"/><linearGradient id="Degradado_sin_nombre_8-4" x1="746.9" y1="231.7" x2="1525.3" y2="231.7" xlink:href="#Degradado_sin_nombre_8"/><linearGradient id="Degradado_sin_nombre_8-5" x1="799.54" y1="319.11" x2="1577.58" y2="319.11" gradientTransform="translate(131.75 -342.71) rotate(16.63)" xlink:href="#Degradado_sin_nombre_8"/></defs><title>Artboard 1</title><g id="Layer_3" data-name="Layer 3"><g class="cls-2"><rect class="cls-3" y="-12" width="1366" height="780.38"/><path class="cls-4" d="M324.73,790.46s38-271.31,320.51-228.1,494.38,26.12,629-32.36,342.48,311.18,18.68,330.16S215.48,939.16,324.73,790.46Z"/><path class="cls-5" d="M1206.13,971.76c-300.3-69.48-1014.95,110.38-861-331.35,0,0,113.83-254.86,358.35-135.83s442.42,159.94,582,139.38,220.92,397.29-79.38,327.8"/><polyline class="cls-1" points="1365.91 -11.99 1365.91 830.92 123.3 830.92 123.3 -11.99"/><text class="cls-6" transform="translate(74.25 321.91)">THE BEST ONLINE<tspan x="0" y="57.1">EDI</tspan><tspan class="cls-7" x="86.09" y="57.1">T</tspan><tspan class="cls-8" x="114.23" y="57.1">OR &amp; LEARNING</tspan></text><text class="cls-9" transform="translate(74.25 426.3)">Impr<tspan class="cls-10" x="49.33" y="0">ov</tspan><tspan x="71.97" y="0">e </tspan><tspan class="cls-11" x="89.22" y="0">y</tspan><tspan x="99.64" y="0">ourself and p</tspan><tspan class="cls-12" x="232.09" y="0">r</tspan><tspan x="239.7" y="0">acti</tspan><tspan class="cls-12" x="277.24" y="0">c</tspan><tspan x="288.31" y="0">e </tspan><tspan class="cls-10" x="305.57" y="0">y</tspan><tspan x="315.99" y="0">our skills</tspan><tspan class="cls-13" x="0" y="32.63">t</tspan><tspan x="8.18" y="32.63">o dis</tspan><tspan class="cls-12" x="55.47" y="32.63">c</tspan><tspan class="cls-10" x="66.54" y="32.63">ov</tspan><tspan x="89.18" y="32.63">er ‘ treasure ’ in our sea</tspan></text><path class="cls-14" d="M1142.75.63c9.09-20,17.67-43.95,25.73-72.86"/><path class="cls-15" d="M1168.48-72.23c74.07-265.35,287.29,120.83,249.39,369.6s284.3,246.91-35.54,314.68S823.87,459.56,823.87,459.56s-168.14-140.87-7.41-278.28C959.69,58.83,1068.37,164,1142.75.63"/><path class="cls-16" d="M1297.25,21.4c146.84-233,240.6,197.91,133.13,425.33S1632.05,764.54,1306.33,738s-491.25-305.8-491.25-305.8-120.75-183,72.5-268.64,262.83,90.85,409.67-142.11"/><ellipse class="cls-17" cx="953" cy="623.68" rx="403" ry="99.14"/><rect class="cls-18" x="670.2" y="131.84" width="578.97" height="412.21" rx="13.76"/><rect class="cls-19" x="697.34" y="170.64" width="524.69" height="343.77"/><circle class="cls-20" cx="918.75" cy="152.55" r="5.65"/><path class="cls-20" d="M1002.81,155.64h-67.1a3.47,3.47,0,0,1,0-6.94h67.1a3.47,3.47,0,0,1,0,6.94Z"/><path class="cls-21" d="M643.64,553.42h635.59a0,0,0,0,1,0,0v38.23a9.23,9.23,0,0,1-9.23,9.23H652.87a9.23,9.23,0,0,1-9.23-9.23V553.42A0,0,0,0,1,643.64,553.42Z"/><path class="cls-22" d="M1103.39,283.79s0,.56-.06,1.54c-.28,7.09-1.43,36.37-1.09,40.09.1,1.15,2.48,2,5.9,2.59a104.57,104.57,0,0,0,11.46,1.2c7.52.45,14.63.45,14.63.45l10.8-3.85s-1.93-18.12-2.32-26.6-3.08-19.66-5.39-23.52-14.65-1.54-15.81-1.15S1103.39,283.79,1103.39,283.79Z"/><path class="cls-23" d="M1108.14,328a104.57,104.57,0,0,0,11.46,1.2c7.52.45,14.63.45,14.63.45l5.66-6s-1.09-1.9-1.63-9.47-2.16-23.81-3-25.7-7.58,5.41-7.58,5.41l-21.37,1.89s-1.08,30.57-1.36,32.47S1108.14,328,1108.14,328Z"/><path class="cls-24" d="M1113.22,310.39s0,.28,0,.76c0,1-.11,2.88-.23,5-.23,4-.64,8.73-1.29,9.5-1.16,1.34,3.66,2.89,3.66,2.89l14.27-2.89-.77-5.21s-1.55-4.1-2.83-7.54c-.59-1.56-1.11-3-1.41-3.83C1123.63,306.34,1113.22,310.39,1113.22,310.39Z"/><path class="cls-25" d="M1126,312.87c-.59-1.56-1.11-3-1.41-3.83-1-2.7-11.38,1.35-11.38,1.35s0,.28,0,.76c0,1-.11,2.88-.23,5,0,0,5.34,1.22,12-2.63Z"/><path class="cls-24" d="M1102.24,287.64s-.39,9.83-.58,12.92,3.08,7.32,6.36,8.86,4.43,2.51,6.55,2.9a31.82,31.82,0,0,0,7.33.19c1.92-.19,7.13-4.24,9.06-6.36s2.31-8.87,2.12-10.41-.39-.19,1.92-2.7,1.93-4.43,1.16-5.78-3.28-5.59-3.28-5.59l-8.86-1.93-12.53.58Z"/><path class="cls-22" d="M1107.12,268.11s-7.71,5.4-8,11.83,2.32,11.05,3.34,10.79a16.58,16.58,0,0,0,4.89-1.8c1.54-1-2.06,3.6.25,3.34s7.2-2.31,7.2-2.31-1,2.82,1.28,2.31,8.49-3.6,8.49-3.6-1,2.06.77,1.8,4.88-2.31,4.88-2.31-.77,2.57,0,2.06.77-5.4,3.85-5.14l3.09.25a10.06,10.06,0,0,0,1.28-5.91c-.25-3.6-4.88-12.59-9-13.62S1109.43,266.06,1107.12,268.11Z"/><path class="cls-26" d="M1111.21,297.25s-1.22,5.68-.41,6.09,3.35.71,3.55-.3a19.66,19.66,0,0,0-1.11-6.8C1112.63,295.22,1111.41,295.63,1111.21,297.25Z"/><path class="cls-27" d="M1136.67,533.07s-2.05,10.8-8.73,11.83-6.69,4.62-6.69,4.62,2.57,3.09,10.8,2.57,8.22-1,11.31-2.57,1.54-1.54,5.14-1,8.22,2.57,7.19,0-7.71-14.9-9.76-16.44S1136.67,533.07,1136.67,533.07Z"/><path class="cls-27" d="M1172.14,533.07s3.6,17.48,2.57,22.62-2.57,7.71,0,8.74,5.07,1,7.13-.58,4.18-6.75,5.2-9.83-2.5-11.56-2.5-11.56l2.22-4.29a1.38,1.38,0,0,0-.26-1.64l-6-7.57Z"/><path class="cls-28" d="M1112.52,395.07s-9.26,9.25-10,27,15.75,62,17.13,64.94,14.48,49.17,14.48,49.17l14.65-1.54s-11.3-68.36-12.08-76.07-4.11-18-4.11-18,7.71,23.9,9.25,31.61,0,1.8,3.09,13.1c3,11,26.21,50.12,26.21,50.12s8.48-.77,11.57-3.86-15.42-51.65-18.51-57-.77-42.4-3.85-54.74-14.65-27-14.65-27Z"/><path class="cls-25" d="M1148.75,534.62s-11.3-68.36-12.08-76.07-4.11-18-4.11-18-3.77.29-3.77,9.76,3,39.5,5.69,47.88,3.78,13,3.78,21.11a112.65,112.65,0,0,0,1.36,16.23Z"/><path class="cls-20" d="M1110.52,321.38s10.22,5,18.32-3.28a78,78,0,0,0,11.37,3.85c6.17,1.55,10.6,2.12,12.33,6.56S1163,365.9,1162,371.3s-4.82,27-5.21,27.75-8.09-1.15-8.09-1.15-.39-11.76-.39-16.2-2.31-17-3.85-20.43a50,50,0,0,0-3.28-6.16s.77,12.52,1.16,18.88,2.31,18.51,2.31,18.51a51.29,51.29,0,0,1-7.82,4.52c-7,3.28-17.35,6.33-26.1,1.26,0,0-4.63-15-6.17-20.43a64.57,64.57,0,0,0-5-11.57s-1.93,15-4.63,18.12A113.86,113.86,0,0,0,1088,394l-9.25-.77s2.7-17,5.78-21.59,3.47-15,4.63-28.14,2.31-13.49,6.55-15S1110.52,321.38,1110.52,321.38Z"/><path class="cls-27" d="M1125.36,631.59a1.63,1.63,0,0,1-1.59-1.35l-42.41-249.8a1.62,1.62,0,1,1,3.2-.55L1127,629.69a1.63,1.63,0,0,1-1.33,1.87A1.27,1.27,0,0,1,1125.36,631.59Z"/><path class="cls-27" d="M1178.56,627a1.62,1.62,0,0,1-1.6-1.39l-35.47-247.49a1.63,1.63,0,1,1,3.22-.46l35.46,247.49a1.62,1.62,0,0,1-1.37,1.83Z"/><path class="cls-27" d="M1086.05,407.23a1.63,1.63,0,0,1,0-3.25l61.67-1.54a1.56,1.56,0,0,1,1.67,1.58,1.64,1.64,0,0,1-1.58,1.67l-61.68,1.54Z"/><path class="cls-27" d="M1091.44,439.61a1.62,1.62,0,0,1-1.62-1.58,1.64,1.64,0,0,1,1.58-1.67l59.88-1.54a1.59,1.59,0,0,1,1.67,1.58,1.63,1.63,0,0,1-1.58,1.67l-59.89,1.54Z"/><path class="cls-27" d="M1097.1,474.56a1.63,1.63,0,0,1,0-3.25l59.89-1.54a1.66,1.66,0,0,1,1.66,1.58A1.62,1.62,0,0,1,1157,473l-59.88,1.54Z"/><path class="cls-27" d="M1102.75,512.08a1.62,1.62,0,0,1,0-3.24l59.88-1.54a1.71,1.71,0,0,1,1.66,1.58,1.61,1.61,0,0,1-1.58,1.66l-59.88,1.54Z"/><path class="cls-27" d="M1110.46,550.35a1.63,1.63,0,0,1,0-3.25l57-.72h0a1.63,1.63,0,0,1,0,3.25l-57,.72Z"/><path class="cls-27" d="M1116.12,582.73a1.63,1.63,0,0,1,0-3.25l55.51-.58h0a1.62,1.62,0,0,1,0,3.24l-55.51.59Z"/><path class="cls-29" d="M1135.77,397.51s-7.32-18.89-7.32-20.24,1.54-4.24,3.66-4.82,6.36-3.66,7.33-6.17-.2-18.88-.2-18.88l1.55,5.78.38,1.15,1.16,19.66c.38,6.37,2.31,18.51,2.31,18.51a51.29,51.29,0,0,1-7.82,4.52Z"/><path class="cls-29" d="M1099.92,348.94s-3.47,12.53-.38,17.34l-1.52,9.4s-4.84-5.35-4.65-8.43,1.73-12.53,2.89-14.46a17.5,17.5,0,0,1,2.89-3.47Z"/><path class="cls-24" d="M1079.62,392.24s-3.85.77-3.85,4.37.77,7.71,3.34,8.48,6.42,2.06,8,1,4.12-.52,3.09-3.34-2.83-4.63-2.57-6.43,1-2.31-.77-3.08S1079.62,392.24,1079.62,392.24Z"/><path class="cls-24" d="M1149.78,396.35a4.64,4.64,0,0,1-3.13,2,14.44,14.44,0,0,1-3.55,0,6,6,0,0,0-4.11,6.68c.51,5.4,0,9,2,9.51s8,0,10-2.06,5.14-10.28,5.14-12.59,0-2.57-1-2.83S1149.78,396.35,1149.78,396.35Z"/><path class="cls-30" d="M812.22,496S878.44,522.46,940,523.61c64.07,1.19,125.25-27.83,125.25-27.83l.08,93.85,0,23.83s-46.4,26.86-126.47,26.92c-84.1.08-126.63-27.49-126.63-27.49l.1-23Z"/><ellipse class="cls-30" cx="938.86" cy="615.72" rx="36.79" ry="126.67" transform="translate(311.61 1546.91) rotate(-89.29)"/><polygon class="cls-31" points="743.5 486.65 937.9 404.08 1130.8 486.94 1029.98 535.45 937.17 573.47 743.5 486.65"/><polygon class="cls-29" points="937.9 404.08 1130.8 486.94 1025.88 531.68 937.76 569.26 937.9 404.08"/><polygon class="cls-32" points="743.5 486.65 937.76 569.26 937.75 583.19 743.93 499.58 743.5 486.65"/><polyline class="cls-31" points="937.76 569.77 937.75 583.19 1130.35 501.35 1130.8 486.94 1025.88 531.68 937.76 569.26"/><path class="cls-28" d="M949.31,474l.15-11.13c3.59,0,88.24,1.62,118.43,40.79,10.15,13.18,13,29,8.56,47-5.5,22.06-3.4,39.73,6.22,52.41,15.21,20.11,46,24,63,24.54l-.35,11.13c-32.77-1-58.17-11.31-71.51-29-11.77-15.53-14.5-36.33-8.15-61.82,3.67-14.74,1.54-27-6.57-37.51C1032.18,475.55,950.14,474,949.31,474Z"/><path class="cls-28" d="M1163.92,655.72c-17.89-2.3-31.22-13.26-29.77-24.48s17.11-18.45,35-16.15l-2.61,20.31Z"/><path class="cls-29" d="M1166.53,635.4l-2.61,20.32c-17.89-2.3-31.22-13.26-29.77-24.48Z"/><path class="cls-28" d="M1249.35,617.14l-2.24,17.47L1228.64,636l17.53,6-.47,3.66-.53,4.06-33,.71L1243.71,661l-1.88,14.63s-47,0-55.36-10.42c-4.31-5.38-5.4-16.33-4-27s5.2-20.94,10.73-25C1203.9,605.24,1249.35,617.14,1249.35,617.14Z"/><path class="cls-29" d="M1245.7,645.58l-.53,4.06-33,.71L1243.71,661l-1.88,14.63s-47,0-55.36-10.42c-4.31-5.38-5-15.9-3.66-26.53Z"/><rect class="cls-20" x="1155.18" y="625.93" width="45.88" height="23.58" transform="translate(395.38 1724.9) rotate(-82.67)"/><rect class="cls-29" x="1164.75" y="636.81" width="23.94" height="23.58" transform="matrix(0.13, -0.99, 0.99, 0.13, 383.36, 1733.01)"/><path class="cls-22" d="M955.53,476.62l-4-16.43-21.06,5.18a11,11,0,0,0,4.05,16.43Z"/><path class="cls-33" d="M1008.88,325s.56-1.85,1.25-4.24c1.15-3.93,2.67-9.31,2.67-10.13,0-1.3,10.88-.43,10.88-.43s.62,4.53,1.36,9.43c.77,5.18,1.68,10.79,2.13,11.9.87,2.18-7.4,2.62-7.4,2.62l-10.45-3.05Z"/><path class="cls-24" d="M1006.27,277.07s-2.62,19.15-3,20.46,13.5,6.53,13.5,6.53l10.88-2.17,2.18-9.15.44-10.88-1.31-6.1-6.1-1.31Z"/><path class="cls-27" d="M1003.65,293s-5.66,8.27-4.79,12.41c.15.67,1.75,9.58,5.67,10.45,6.5,1.44,24.38,6.1,27.43-2.18a76.18,76.18,0,0,0,3.92-18.29c.43-3,0-11.32-.44-14.8s2.18-12.19-8.27-13.93-17.85-1.75-20.9,1.3-4.79,10-1.74,11.76,9.14,2.18,14.36,1.74a21.7,21.7,0,0,0,8.28-2.18s-.44,16.55-1.31,18.29-6.09.87-10.88.44-6.1-1.09-7.84-2a11.39,11.39,0,0,1-2-1.09Z"/><path class="cls-24" d="M1032.83,287.08s5.22-3.05,6.53-.87,2.61,9.58,0,9.14a40.14,40.14,0,0,1-6.1-1.74Z"/><path class="cls-27" d="M897.41,451.24s-12.85-6.43-17.3-11.87-5.93-8.9-8.9-10.87-8.4-1.49-6.92,3.46,4.45,14.83,7.91,18.78,6.43,6.92,6.43,6.92-2.48,2-2,4.45.49,7.91,3,8.41S890,468,893.46,466.07s8.89-6.92,8.89-6.92Z"/><path class="cls-18" d="M1025.86,398.11a26.79,26.79,0,0,0-3.48-5.66l-23.52-7.4-8.27-6.53-1.8-.84c-5.88-2.72-24.51-11.13-32.16-12.22-9.15-1.31-13.94-3.49-17.85-1.31S927,376.34,927,378.08s4.79,27.44,6.53,33.53,3.05,12.63,3.05,12.63-14.37,7.84-16.55,9.58c0,0-13.93,9.58-17.85,12.63a27.2,27.2,0,0,0-5.66,5.66s-1.74,8.27,2.18,9.58c0,0,17.41-3.49,26.56-7.41s24.38-7.83,39.19-13.06,52.68-11.75,57.91-18.72c2.71-3.62,3.9-9.24,4.23-14.24C1026.91,403.65,1026.49,399.58,1025.86,398.11Zm-69.23,13.94V392.89s8.71,12.19,10.45,13.5Z"/><path class="cls-25" d="M1026.61,408.26c.3-4.61-.12-8.68-.75-10.15a26.79,26.79,0,0,0-3.48-5.66l-23.52-7.4-8.27-6.53-1.8-.84s-5,7.25-3.07,11.93,3.54,9.2,12.21,11.37,18.52,4.33,21.68,5.52A40.67,40.67,0,0,0,1026.61,408.26Z"/><path class="cls-25" d="M975.54,401.57a47.55,47.55,0,0,1-7.49-4.86c-4.47-3.41-11.36-7.35-12.68-7.09s-4.53,3.41-5.78,7-3.35,9.26-3.41,11.95-5.12,13.27-5.12,13.27l15.57-9.75V392.89s8.71,12.19,10.45,13.5Z"/><path class="cls-24" d="M1055.91,425.55s-1.31,8.71-3.05,11.32-2.18,3.92,0,3.92,2.17-3.05,4.79-3.05,5.66,5.22,10,7.4,5.23,3.05,8.28,3.48,7,.44,4.35-2.61-6.53-7.84-9.14-10-9.58-10-9.58-10Z"/><path class="cls-26" d="M1010.08,288.82c-.35,1.67-1.49,6.24-.76,6.39s3.34,1.27,3.59.58c.76-2.18,1-9.22.18-9.43C1011.71,286,1010.73,285.68,1010.08,288.82Z"/><path class="cls-20" d="M1007.57,320.61s-10.45,3.48-16.54,7.84-6.1,7-9.15,17.41-3.48,27.44-3.48,27.44l9.14,3.91s2.62-9.58,3.92-10-1.3,11.76-1.74,13.06,1.74,6.1,5.66,9.15,20.9,7.83,24.39,8.7,7.4,7.84,7.4,7.84.87-3.92,2.17-11.75,3.05-20.47,4.36-23.95,1.74-10.45,1.74-10.45,4.79,19.16,7,27.43,8.71,28.74,10,34a30.15,30.15,0,0,0,2.61,7.4l7.84-.87s0-9.14-.87-19.59-6.09-19.59-6.09-29.17-.88-35.71-5.66-44-24.39-12.19-24.39-12.19-2.18,6.09-10,4.79-6.1-6.1-6.1-6.1S1009.32,319.3,1007.57,320.61Z"/><path class="cls-20" d="M1027.17,406s.87-3.92,2.17-11.75,3.05-20.47,4.36-23.95,1.74-10.45,1.74-10.45,4.79,19.16,7,27.43,8.71,28.74,10,34a30.15,30.15,0,0,0,2.61,7.4l7.84-.87s0-9.14-.87-19.59-6.09-19.59-6.09-29.17-.88-35.71-5.66-44-24.39-12.19-24.39-12.19-2.18,6.09-10,4.79-6.1-6.1-6.1-6.1-.43-2.18-2.18-.87c0,0-10.45,3.48-16.54,7.84s-6.1,7-9.15,17.41-3.48,27.44-3.48,27.44l9.14,3.91s2.62-9.58,3.92-10-1.3,11.76-1.74,13.06,1.74,6.1,5.66,9.15,20.9,7.83,24.39,8.7,7.4,7.84,7.4,7.84"/><path class="cls-29" d="M1027.17,406s.87-3.92,2.17-11.75,3.05-20.47,4.36-23.95,1.74-10.45,1.74-10.45,4.79,19.16,7,27.43c0,0-2.31-17-2.71-24.27s-2.93-13.67-4.91-12.95-5.14,19.64-6.51,24.76-2.37,10.84-4.34,14.59S1027.17,406,1027.17,406Z"/><path class="cls-29" d="M989.72,380.26c.44-1.3,3-13.5,1.74-13.06s-3.92,10-3.92,10l-2.28-1s6-30,9.72-30c0,0-1.19,8.67,0,15.18S989.72,380.26,989.72,380.26Z"/><path class="cls-22" d="M769.59,338.48s1.24,5.59,9.62,8.92c3.55,1.42,8.39,2.42,15,2.42,22.06,0,20.8-36.87,20.8-42.22a82.92,82.92,0,0,0,0-8.81c-.37-3.62-1.64-7-5.38-8.53-6.93-2.83-24.9-.63-27.1,19.23s-4.41,28-10.09,27.1S768.64,336.9,769.59,338.48Z"/><path class="cls-23" d="M815,298.79a82.92,82.92,0,0,1,0,8.81c0,5.35,1.26,42.22-20.8,42.22-6.57,0-11.41-1-15-2.42,0,0,5.85-5.24,11.84-7.52s-1.08-5.69,2-22.24C797.61,293.11,815,298.79,815,298.79Z"/><path class="cls-20" d="M818.43,347.62l-1.89,5.67s9.14-.63,11.35,2.21,6.62,27.41,7.25,33.08.63,24.9.63,24.9l-18.91-.63L785.35,411l-10.09-10.4-4.1-14.81,27.11-34.35,7.56-11.35Z"/><path class="cls-29" d="M789.13,369.05l-9.77,13.55-4.41,6L778.1,398,791,405.6,808.35,417l9.77-.32L815,399.93s-19.54-2.84-24.27-6.62-1.26-10.08,0-13.23,2.52-12.61,2.21-13.56S789.13,369.05,789.13,369.05Z"/><path class="cls-29" d="M821,372.83s2.84,10.4,2.21,14.18-5.67,3.46-5.67,3.46a16.94,16.94,0,0,0,2.83-9.76C820,375.35,821,372.83,821,372.83Z"/><path class="cls-18" d="M769.59,448.14s-7.56-2.52-10.4.63-4.1,7.25-3.78,9.14,3.46,3.15,3.46,5-2.52,10.4-1.57,13.55.63,10.72,6,12.61,3.46-3.78,3.78-8.82,4.41-13.87,4.72-15.45S769.59,448.14,769.59,448.14Z"/><path class="cls-27" d="M773.05,441.53s-6,7.24-6.61,13.23-2.84,11.66.94,13.24,47.59,21.42,55.78,22.69,19.22.63,24.27-.95,7.56-9.45,9.13-16.07,6.31-12,1-18.91-43.8-44.12-43.8-44.12-16.07-.94-17.34-.94-23.32,1.57-23.32,1.57-4.72,15.13-4.41,20.49S773.05,441.53,773.05,441.53Z"/><path class="cls-25" d="M817.17,471.15S782.51,457,773.05,441.53c0,0-4.09,6-5.35,8.5a11.68,11.68,0,0,0-1.26,4.73S793.85,472.09,817.17,471.15Z"/><path class="cls-18" d="M796.37,410.64s-8.82,2.84-7.24,4.73,21.43,16.07,24,16.7c2,.51,27.1-.83,36.66-1.37a4.53,4.53,0,0,0,4.23-3.86L859.63,390a5.68,5.68,0,0,0-5.78-6.54l-42.35,1.21a5.85,5.85,0,0,0-5.68,6.15l.95,18.92Z"/><path class="cls-24" d="M796.37,406.23s5,.32,8.2,2.52,6,12.29,6.3,13.55-1.89,2.21-4.1,1.26-11-8.51-11-8.51l-3.15-2.2-1.89-6Z"/><path class="cls-24" d="M807.72,316.1l-3.15,9.14a5.77,5.77,0,0,0-4.1-1.89c-2.52,0-4.1.95-4.41,2.84s1.89,4.72,3.47,5.67a6.1,6.1,0,0,1,2.2,2.21s1.58,7.87,4.41,11,5.68,4.72,8.83,5,6,1.26,8.19.63,7.56-11.35,8.51-13.24.63-7.88.94-12.29.63-7.25.63-7.25l-.94-5.35-6.3-4.1-11.66,2.52Z"/><path class="cls-22" d="M807.72,323.67s13.23.31,17.33-4.41c0,0,3.78,4.41,7.56,6s4.1,3.78,5,.63,1.57-9.45-.95-14.18-1.89-8.19-9.77-8.51-8.18-3.32-11.65-2.37S801.89,302,798,311.38c-1.56,3.72.95,11.66.95,11.66s4.41,0,5.67,2.2Z"/><path class="cls-26" d="M822.53,331.86s-2.14,5.86-1.58,6.62,3.19,1.38,3.43.55c.83-2.84,1.3-6.54,1-7.48S823.48,330.6,822.53,331.86Z"/><path class="cls-20" d="M804.56,342.27l-5,3.77s-9.77-.63-15.13,1.58-12.92,16.07-17,23.32-11.34,33.4-6.62,36.55,31.83,5.36,31.83,5.36,1.58-5.36,5.36-6.3c0,0-7.88-9.14-14.5-11.35s-5.35-2.2-5.35-2.2,6.93-10.09,12.6-19.23,9.46-24.58,9.46-24.58Z"/><path class="cls-20" d="M837.09,397.86a2.07,2.07,0,1,1-2.07-2A2.05,2.05,0,0,1,837.09,397.86Z"/><path class="cls-27" d="M711.08,564.19s25.21,11.81,51.59-7.49c0,0,6.3-3.15,3.54-11.81S756,517.33,738.65,512.6c0,0-9.85-2.76-16.15,3.15,0,0-8.27-1.57-11,4.73S700.85,559.46,711.08,564.19Z"/><path class="cls-20" d="M875.81,577.57s-1-10.76-.78-14.7.78-7.08,4.46-6.82,9.19,2.62,9.45,3.41-1.57,1.58.53,2.1,2.1-1.57,5.51.26,7.61,7.35,8.4,9.45-2.89,1.84-6.56,1.58-8.4-2.1-9.45-1.05-1.58,5.77-1.58,5.77h-10Z"/><path class="cls-24" d="M733.53,577.18s3.54-3.54.79-15l5.9-3.94,5.12,2.76s.4,12.6,6.7,14.57l1.57,6.3-9.06,6.3-11-2.37Z"/><path class="cls-24" d="M714.1,538.46s3.42,10.5,3.94,13.39,5.25,10.76,8.93,11.81,17.32-.79,19.95-3.67a14.77,14.77,0,0,0,3.67-10V544.5a5,5,0,0,0,2.89-4.2c.26-3.15-.52-6.3-2.1-6.57s-3.41-.52-3.41-.52l-2.37-7.35-13.91-2.1-12.07,4.46Z"/><path class="cls-27" d="M713.31,530.58s-1.57,12.34.79,13.65,11-4.46,12.87-6.82c0,0-2.1,4.2-.53,4.2s7.61-3.15,10-5.78c0,0-3.42,4.2.26,3.94s8.92-5,8.92-5,0,6,1.32,6.3,1.31-6,3.15-8.4a10,10,0,0,0,1.84-5.51l-9.19-7.87-13.92-1.84-8.66,6Z"/><path class="cls-26" d="M726.05,548.63s0,5.32.78,5.51,3.75-.19,3.55-1.57-1.58-4.33-2.36-4.73S725.85,547.45,726.05,548.63Z"/><path class="cls-22" d="M865.84,616.17s1.31-11.29,1.31-15.49,1.58-20.74,7.35-24.16,10.5-.78,11.29,1.05.79,11,2.89,16.54a111.1,111.1,0,0,1,5,21.53,75.7,75.7,0,0,1,0,11.55l-12.87-2.1Z"/><path class="cls-20" d="M903.12,587.81s4.46-7.61,4.72-10.5,1.31-6.56,3.68-7.35,10.5,2.89,11.81,3.94-.26,2.89,1.31,3.41,2.37-.52,3.42.53a37.75,37.75,0,0,0,7.35,7.09c4.2,2.88,7.61,6.82,7.35,8.66s-2.89,2.89-4.47,2.89-3.15-2.63-8.66-4.73-6.56-3.67-10.76-2.36a12.56,12.56,0,0,0-6.3,4.46Z"/><path class="cls-22" d="M886.32,618.79s2.88-11.29,6-17.33,7.09-13.91,8.93-14.7a8.32,8.32,0,0,1,2.89-.78s8.92,5.25,9.45,6-.53,33.87-1.58,39.64-4.72,13.13-8.4,15.49-28.09,2.1-45.94-2.62-27.83-5.52-33.6-5.25-14.7.78-20-.27-8.14-1.31-8.14-1.31l-3.41-16.54.52-8.66s10.5-13.39,26-15,34.13,9.18,42.53,12.6S886.32,618.79,886.32,618.79Z"/><path class="cls-20" d="M729.59,600.41s2.1,13.65,8.93,16.8,12.86,4.73,15.75,6.57,11.29,8.92,19.42,10.5S801,639.79,801,639.79a35.69,35.69,0,0,0,.49-4.46c.33-5.93-.23-16.6-7.06-24.68,0,0,.53,3.15-3.93-1.31s-12.61-16.8-15.23-20.21-5.78-11.56-10-13.39a18.73,18.73,0,0,0-9.71-1.84c-2.36.26-4.72.79-4.72.79s-5,6.82-10.24,7.08-6.83-6-6.83-6a22.47,22.47,0,0,0-9.45-.27c-4.46,1-5.25,4.2-7.09,9.46S712,609.34,712,609.34L705.18,607l-2.37,3.93s6.83,26.78,11.29,28.36,14.18-1.58,15.49-2.1S729.59,600.41,729.59,600.41Z"/><path class="cls-29" d="M801.49,635.33a35.69,35.69,0,0,1-.49,4.46s-19.17-3.94-27.31-5.51-16.53-8.66-19.42-10.5-8.93-3.41-15.75-6.57-8.93-16.8-8.93-16.8,8.66,6,12.08,2.37a43.07,43.07,0,0,0,6-9.19S766.08,613.8,774,620.37s12.86,13.91,25.72,14.7Z"/><rect class="cls-27" x="670.49" y="564.06" width="36.23" height="53.29" rx="1.86" transform="translate(-126.36 192.03) rotate(-14.56)"/><path class="cls-24" d="M715.42,609.08s-1.84-5.78-1.06-8.4,3.16-6,.79-6.57-3.41,3.94-4.46,4.73-1.05,3.67-4.73-.79-6.56-6.56-6.82-10.5-3.15-3.94-6.56-3.15S687.85,592,688.64,596s7.35,14.7,10.24,16.54,12.6,2.89,13.39,2.89S715.42,609.08,715.42,609.08Z"/><path class="cls-20" d="M717,606.45s-6.56,6.3-6.83,7.61-1.83,1.06-.52,3.68,11.29,16.28,15.49,20,9.45,8.14,15,8.4,11-.79,13.39-3.41,7.09-16.28,8.66-23.36,3.94-18.64,3.94-22.84-8.14-13.13-8.14-13.13l-11,5.25s-2.37,19.69-3.94,24.68a97.68,97.68,0,0,0-2.63,11.29,30.36,30.36,0,0,0-9.45-9.19C724.34,611.18,718.83,605.14,717,606.45Z"/><path class="cls-20" d="M684.23,572.59a1.91,1.91,0,1,1-1.91-1.87A1.89,1.89,0,0,1,684.23,572.59Z"/></g></g></svg>