<svg xmlns="http://www.w3.org/2000/svg" xmlns:xlink="http://www.w3.org/1999/xlink" viewBox="0 0 1366 768"><defs><style>.cls-1{fill:none;}.cls-2{isolation:isolate;}.cls-3{clip-path:url(#clip-path);}.cls-4{opacity:0.76;fill:url(#linear-gradient);}.cls-5{fill:#215273;}.cls-6{fill:url(#linear-gradient-2);}.cls-7{font-size:48.94px;}.cls-15,.cls-7{fill:#fff;}.cls-7,.cls-8{font-family:Montserrat-Regular, Montserrat;}.cls-8{font-size:30px;fill:#ccc;}.cls-9{letter-spacing:-0.02em;}.cls-10{letter-spacing:-0.02em;}.cls-11{letter-spacing:-0.01em;}.cls-12{fill:#a3d0ff;}.cls-13,.cls-18,.cls-29{opacity:0.5;mix-blend-mode:multiply;}.cls-13{fill:url(#linear-gradient-3);}.cls-14{fill:#33648a;}.cls-16{fill:#293f6c;}.cls-17{fill:#b3c5cd;}.cls-18{fill:url(#linear-gradient-4);}.cls-19{fill:#0071b8;}.cls-20{fill:#009fda;}.cls-21{fill:#ffe396;}.cls-22{fill:#d1e2ea;}.cls-23{fill:#ffc32e;}.cls-24{fill:#efa200;}.cls-25{fill:#60bbf2;}.cls-26{fill:#00d6cd;}.cls-27{fill:#0080ba;}.cls-28{fill:#7af8ee;}.cls-29{fill:url(#linear-gradient-5);}.cls-30{fill:#f9b02b;}.cls-31{fill:#003548;}.cls-32{fill:#ff582a;}.cls-33{fill:#3a558f;}.cls-34{fill:#e89049;opacity:0.67;}.cls-35{fill:#f29663;}.cls-36{opacity:0.25;}.cls-37{fill:#1e4360;}.cls-38{fill:#00415c;}</style><clipPath id="clip-path"><rect class="cls-1" y="-3073" width="1366" height="3840"/></clipPath><linearGradient id="linear-gradient" x1="676.73" y1="-765.72" x2="688.49" y2="4.6" gradientUnits="userSpaceOnUse"><stop offset="0" stop-color="#dbeee9"/><stop offset="1" stop-color="#c8f0ee"/></linearGradient><linearGradient id="linear-gradient-2" x1="684.41" y1="7.94" x2="681.53" y2="774.02" gradientUnits="userSpaceOnUse"><stop offset="0" stop-color="#215273"/><stop offset="0.33" stop-color="#308993"/><stop offset="0.44" stop-color="#359d9e"/><stop offset="0.6" stop-color="#42ad9a"/><stop offset="0.87" stop-color="#55c595"/><stop offset="1" stop-color="#7be595"/></linearGradient><linearGradient id="linear-gradient-3" x1="407.81" y1="567.43" x2="942.21" y2="567.43" gradientUnits="userSpaceOnUse"><stop offset="0" stop-color="#0093aa"/><stop offset="1" stop-color="#00bfdc"/></linearGradient><linearGradient id="linear-gradient-4" x1="421.92" y1="608.85" x2="540.38" y2="608.85" xlink:href="#linear-gradient-3"/><linearGradient id="linear-gradient-5" x1="802.14" y1="597.01" x2="1054.79" y2="597.01" xlink:href="#linear-gradient-3"/></defs><title>Artboard 5</title><g class="cls-2"><g id="Layer_3" data-name="Layer 3"><g class="cls-3"><rect class="cls-4" x="-1" y="-776" width="1367" height="777"/><path class="cls-5" d="M1366-297V1.34H0V-202a187.25,187.25,0,0,1,61.23-12.92c72.82-3.18,141.86,31.1,216.36,25.58,69.67-5.13,138.1-29.6,194-71.39C520.28-297,565.53-348,626.36-350.79c86.31-4,143.17,88.79,223,121.67,58.31,24,125.3,14,185.24-5.7s116.88-48.58,178.41-62.6C1262.89-308.77,1316.26-308.93,1366-297Z"/><rect class="cls-6" y="-0.5" width="1366" height="768"/><text class="cls-7" transform="translate(218.5 139.84)">GET THE BEST EXPERIENCE FROM US</text><text class="cls-8" transform="translate(385.45 195.28)">Impr<tspan class="cls-9" x="72.57" y="0">ov</tspan><tspan x="105.87" y="0">e </tspan><tspan class="cls-9" x="131.25" y="0">y</tspan><tspan x="146.58" y="0">ourself and p</tspan><tspan class="cls-10" x="341.43" y="0">r</tspan><tspan x="352.62" y="0">acti</tspan><tspan class="cls-10" x="407.85" y="0">c</tspan><tspan x="424.14" y="0">e </tspan><tspan class="cls-9" x="449.52" y="0">y</tspan><tspan x="464.85" y="0">our skills</tspan><tspan class="cls-11" x="62.4" y="32.63">t</tspan><tspan x="74.43" y="32.63">o dis</tspan><tspan class="cls-10" x="144" y="32.63">c</tspan><tspan class="cls-9" x="160.29" y="32.63">ov</tspan><tspan x="193.59" y="32.63">er ‘ treasure ’ in our sea</tspan></text><ellipse class="cls-12" cx="679.65" cy="591.48" rx="412.65" ry="84.52"/><ellipse class="cls-13" cx="675.01" cy="567.43" rx="267.2" ry="14.33"/><path class="cls-14" d="M499.48,296.64H872a11.28,11.28,0,0,1,11.28,11.28V543a0,0,0,0,1,0,0H488.21a0,0,0,0,1,0,0V307.92A11.28,11.28,0,0,1,499.48,296.64Z"/><rect class="cls-15" x="510.96" y="318.79" width="349.62" height="202.05"/><path class="cls-16" d="M894.81,567.43H476.72A24.44,24.44,0,0,1,452.27,543h467A24.45,24.45,0,0,1,894.81,567.43Z"/><rect class="cls-17" x="652.09" y="542.99" width="67.35" height="7.38"/><path class="cls-18" d="M540.38,608.8c0,7.61-52.34,13.85-118.46,14.31A143.78,143.78,0,0,1,430,597c.33-.82.66-1.63,1-2.44C492.8,595.54,540.38,601.55,540.38,608.8Z"/><path class="cls-19" d="M495.15,599.29l4.64,7.89H332.6a7.24,7.24,0,0,1-7.37-7.1V586.42a7.24,7.24,0,0,1,7.37-7.1H499.79l-4.64,7.89Z"/><polygon class="cls-20" points="495.15 599.29 499.79 607.18 431.88 607.18 431.88 579.32 499.79 579.32 495.15 587.21 495.15 599.29"/><rect class="cls-15" x="439.85" y="587.21" width="55.3" height="12.08"/><path class="cls-21" d="M329.31,537.28l-4.08,6.94H472.47A6.38,6.38,0,0,0,479,538v-12a6.38,6.38,0,0,0-6.49-6.25H325.23l4.08,6.94Z"/><polygon class="cls-16" points="329.31 537.27 325.23 544.22 385.04 544.22 385.04 519.69 325.23 519.69 329.31 526.63 329.31 537.27"/><rect class="cls-22" x="329.31" y="526.63" width="48.7" height="10.64" transform="translate(707.33 1063.9) rotate(180)"/><path class="cls-23" d="M338,571.91l-4.36,7.41H490.83a6.8,6.8,0,0,0,6.93-6.67V550.9a6.81,6.81,0,0,0-6.93-6.68H333.62l4.36,7.42Z"/><polygon class="cls-24" points="337.98 571.91 333.62 579.32 443.67 579.32 443.67 544.22 333.62 544.22 337.98 551.64 337.98 571.91"/><rect class="cls-22" x="337.98" y="551.64" width="98.19" height="20.26" transform="translate(774.15 1123.54) rotate(180)"/><polygon class="cls-25" points="423.58 578.33 415.69 572.39 407.8 578.33 407.8 563.13 423.58 563.13 423.58 578.33"/><path class="cls-19" d="M488.47,492.37l4.08-6.95H345.32a6.37,6.37,0,0,0-6.49,6.26v21.75a6.37,6.37,0,0,0,6.49,6.26H492.55l-4.08-7Z"/><path class="cls-15" d="M347.18,492.37H488.47a0,0,0,0,1,0,0v20.37a0,0,0,0,1,0,0H347.18a1.62,1.62,0,0,1-1.62-1.62V494A1.62,1.62,0,0,1,347.18,492.37Z"/><rect class="cls-22" x="395.04" y="492.37" width="93.43" height="20.37"/><rect class="cls-23" x="403.15" y="349.93" width="3.23" height="124.19" transform="translate(-167.94 486.93) rotate(-52.96)"/><path class="cls-26" d="M458.54,391.43A51.37,51.37,0,0,1,362.74,428a52.84,52.84,0,0,1-2.35-6.2,50.73,50.73,0,0,1-2.25-12.91c-.08-1.63-.07-3.26,0-4.88a51.37,51.37,0,0,1,100.39-12.54Z"/><path class="cls-27" d="M458.54,391.43a51.07,51.07,0,0,1,2.3,14.88,6.88,6.88,0,0,1-5.39-2.59c-1.06-1.41-1.55-3.21-2.76-4.49s-3.69-1.64-4.49-.08c-1.22-1.55-1.17-3.72-1.85-5.57s-3.08-3.46-4.52-2.12c-1.07,1-.66,2.82.23,4s2.17,2,2.9,3.27a4.74,4.74,0,0,1-.93,5.7,10.76,10.76,0,0,0-1.72,1.5,6,6,0,0,0-.78,3.06,15.25,15.25,0,0,1-6,10.5,23.47,23.47,0,0,0-3.46,2.62c-3.85,4.12-1.29,11-3.39,16.24a7.94,7.94,0,0,0-4.17,5.66c-2.41-.18-3.51-3.23-3.13-5.6s1.63-4.62,1.6-7c-.06-3.73-3.22-7.2-2.26-10.8.43-1.64,1.62-3.56.47-4.8s-3.36,0-4.74,1.16c-1.81,1.53-3.94,2.89-6.3,2.95s-4.89-1.61-5-4a12.49,12.49,0,0,1,.29-2.42c.7-5.38-4-10.55-2.75-15.82a1.74,1.74,0,0,1,.48-.93,2.86,2.86,0,0,1,1.19-.45c3.4-1,3-6.71,6.19-8.18a9.72,9.72,0,0,0,8.54,1.8c.07-1.42-.2-3.27-1.59-3.53-.84-.16-1.65.41-2.51.37-2-.08-2.58-3-4.46-3.58s-3.44,1.63-4.26,3.46c-1.4-.2-1.5-2.19-1.22-3.58.52-2.49,1.08-5.09,2.67-7.08s4.55-3.13,6.76-1.86c-.46,1.92,1.24,3.61,2.77,4.86a8.73,8.73,0,0,0,3.7,2.09,3,3,0,0,0,3.48-1.78,4.71,4.71,0,0,1,.66-6.32,7.76,7.76,0,0,1-1.35-7.94c.62,1.36,2.91.35,3.13-1.12s-.64-2.86-1-4.3a6.39,6.39,0,0,1-.17-1.74A51.3,51.3,0,0,1,458.54,391.43Z"/><path class="cls-28" d="M458.54,391.43a51.07,51.07,0,0,1,2.3,14.88,6.88,6.88,0,0,1-5.39-2.59c-1.06-1.41-1.55-3.21-2.76-4.49s-3.69-1.64-4.49-.08c-1.22-1.55-1.17-3.72-1.85-5.57s-3.08-3.46-4.52-2.12c-1.07,1-.66,2.82.23,4s2.17,2,2.9,3.27a4.74,4.74,0,0,1-.93,5.7,10.76,10.76,0,0,0-1.72,1.5,6,6,0,0,0-.78,3.06,15.25,15.25,0,0,1-6,10.5,23.47,23.47,0,0,0-3.46,2.62c-3.85,4.12-1.29,11-3.39,16.24a7.94,7.94,0,0,0-4.17,5.66c-2.41-.18-3.51-3.23-3.13-5.6s1.63-4.62,1.6-7c-.06-3.73-3.22-7.2-2.26-10.8.43-1.64,1.62-3.56.47-4.8s-3.36,0-4.74,1.16c-1.81,1.53-3.94,2.89-6.3,2.95s-4.89-1.61-5-4a12.49,12.49,0,0,1,.29-2.42c.7-5.38-4-10.55-2.75-15.82a1.74,1.74,0,0,1,.48-.93,2.86,2.86,0,0,1,1.19-.45c3.4-1,3-6.71,6.19-8.18a9.72,9.72,0,0,0,8.54,1.8c.07-1.42-.2-3.27-1.59-3.53-.84-.16-1.65.41-2.51.37-2-.08-2.58-3-4.46-3.58s-3.44,1.63-4.26,3.46c-1.4-.2-1.5-2.19-1.22-3.58.52-2.49,1.08-5.09,2.67-7.08s4.55-3.13,6.76-1.86c-.46,1.92,1.24,3.61,2.77,4.86a8.73,8.73,0,0,0,3.7,2.09,3,3,0,0,0,3.48-1.78,4.71,4.71,0,0,1,.66-6.32,7.76,7.76,0,0,1-1.35-7.94c.62,1.36,2.91.35,3.13-1.12s-.64-2.86-1-4.3a6.39,6.39,0,0,1-.17-1.74A51.3,51.3,0,0,1,458.54,391.43Z"/><path class="cls-28" d="M395.27,374c1.88,2.36-1.45,5.45-1.74,8.46-.13,1.27.33,2.56.17,3.83-.41,3.1-4,4.52-7,5.32a25.11,25.11,0,0,0-1.82-7.13,2.69,2.69,0,1,1-5-1.09c-2.06-.77-4,1.29-5.09,3.23a6.68,6.68,0,0,0-1.07,3.87,2.69,2.69,0,0,0,2.7,2.47,7.85,7.85,0,0,1-4.86,8.58,14,14,0,0,0-2.92,1.07,3.87,3.87,0,0,0-.4,5.93c.69.59,1.63,1,2,1.78s0,1.91,0,2.88c-.23,2.86,2.24,5.35,5,6.28s5.67.74,8.54.87a3,3,0,0,1,1.43.31,3.23,3.23,0,0,1,1.16,2.1l1.5,6.12c3.87-1.17,8.94-1.94,11.19,1.42,1.87,2.8.59,7.19,3.12,9.42a16.75,16.75,0,0,0,3.21,1.72c1.06.6,2,1.71,1.8,2.9-.41,1.92-3.7,3.27-2.53,4.85a2.48,2.48,0,0,0,1.12.71c3.25,1.29,6.87,3,7.85,6.39l-9.6-2.17c-3.05-.7-6.21-1.44-8.69-3.35s-4.05-5.37-2.83-8.26a9.12,9.12,0,0,1-10.6-3.69c-1-1.59-1.57-3.63-3.24-4.46-1.21-.59-2.65-.38-4-.68a5.17,5.17,0,0,1-3.74-5.73h-7.81c-.12,0-.23,0-.34,0a52.84,52.84,0,0,1-2.35-6.2,50.73,50.73,0,0,1-2.25-12.91,7.69,7.69,0,0,0,0-4.88,51.46,51.46,0,0,1,6.73-22.88c0,1.54-.42,3.23-.12,3.51a1.8,1.8,0,0,0,2.61-.26l1.81,2.35,1.29-2.18c.41,1.13,2.19-.16,2-1.36s-.91-2.49-.27-3.52c1.1-1.74,4.19.13,5.77-1.18s-.28-4.16.4-6.22a5,5,0,0,1,2.41-2.4l5.47-3.36c2.08-1.28,4.62-2.6,6.84-1.58,1.19,2.21-1.33,5.27.13,7.31C393.79,372.93,394.71,373.29,395.27,374Z"/><path class="cls-28" d="M374.09,405.65a.81.81,0,0,0-.48.32.8.8,0,0,0,0,.46,2.91,2.91,0,0,0,1,2.07c.27.17.63.28.74.58a1.3,1.3,0,0,1-.05.75c-.31,1.5,1.18,2.7,2.49,3.5a1.78,1.78,0,0,0,1.6.37,20.84,20.84,0,0,0-2.35-3.86c.6.09,1.06-.51,1.32-1.06s.52-1.2,1.1-1.38c.23-.07.5-.06.66-.23a.84.84,0,0,0,.18-.49c.19-1.54.57-4.83-1.7-4.58C377,402.28,375.8,405,374.09,405.65Z"/><path class="cls-28" d="M397.42,404.21a21.87,21.87,0,0,1,.35,2.43,9.46,9.46,0,0,0,2.68,5.31c.25.25.63.5.93.31s.26-.57.21-.88c-.24-1.59-.47-3.17-.71-4.75a1.54,1.54,0,0,0,1-2,5.33,5.33,0,0,0-1.44-2,3.35,3.35,0,0,1-1.13-2.18c1.5-.66,1.77-2.62,1.83-4.25.12-3.35-3.39-1.56-4.15.35C395.94,399.2,396.72,401.65,397.42,404.21Z"/><path class="cls-28" d="M418.46,372c.52.49.34,1.34.15,2s-.24,1.6.38,2a.51.51,0,0,0,.36.07.72.72,0,0,0,.36-.26,8.16,8.16,0,0,0,2-3.12,2.78,2.78,0,0,0-1.2-3.24,3.59,3.59,0,0,0-1.6-.24,1.22,1.22,0,0,0-.65.15c-.78.52.31,1.78,0,2.66"/><path class="cls-28" d="M419,366.06a5.86,5.86,0,0,1-2.81-3,1.8,1.8,0,0,1-.17-1.09c.18-.71,1-1,1.69-1.17a3.38,3.38,0,0,0,2-.77c.47-.54.71-1.52,1.42-1.42a.94.94,0,0,1,.68.72,2,2,0,0,1-1.89,2.5,1.37,1.37,0,0,0-.9.11c-.31.23-.27.69-.19,1.06a23.91,23.91,0,0,0,.79,2.87l-1.23.39a1,1,0,0,1,0-.67"/><path class="cls-23" d="M441.14,485.42H376.7a84.67,84.67,0,0,1,6.75-5.19c1.07-.74,2.24-1.5,3.46-2.24,4.71-2.93,10.39-5.68,16-6.67a8.09,8.09,0,0,1,9.55.28l.23.18a71.41,71.41,0,0,1,16.57,6.54c.87.43,1.68.89,2.47,1.32C437.14,482.65,440.91,485.27,441.14,485.42Z"/><path class="cls-24" d="M441.14,485.42H376.7a84.67,84.67,0,0,1,6.75-5.19c1.07-.74,2.24-1.5,3.46-2.24a32.56,32.56,0,0,0,19.76,5.37,79.77,79.77,0,0,0,22.63-5c.87.43,1.68.89,2.47,1.32C437.14,482.65,440.91,485.27,441.14,485.42Z"/><path class="cls-23" d="M343.73,407.9A65.7,65.7,0,0,0,459.5,449.17a4.36,4.36,0,0,0,1.05-2.92,4.3,4.3,0,0,0-7.55-2.73,57.1,57.1,0,0,1-90.95-68.76,4.25,4.25,0,0,0,.73-2.43,4.31,4.31,0,0,0-1.54-3.2,1.35,1.35,0,0,0-.19-.16,4.32,4.32,0,0,0-6.19,1.07A65.32,65.32,0,0,0,343.73,407.9Z"/><ellipse class="cls-29" cx="928.47" cy="597.01" rx="126.33" ry="14.33"/><path class="cls-30" d="M977.21,421.06s-5,2.81-5,5.55,2.61,11.84,2.61,11.84l7.47-10.89Z"/><polygon class="cls-15" points="870.87 596.97 843.24 608.05 829.59 575.73 849.68 592.2 865.14 585.62 870.87 596.97"/><polygon class="cls-31" points="852.53 604.32 849.68 592.2 829.59 575.73 843.24 608.05 852.53 604.32"/><path class="cls-32" d="M850.46,588.24l-2.58,5.28c-.55,1.13-2.21.11-1.66-1l2.58-5.29C849.35,586.09,851,587.12,850.46,588.24Z"/><path class="cls-32" d="M848.23,585.75a61.74,61.74,0,0,1-2.93,5.8c-.62,1.09-2.28.08-1.66-1,1-1.74,1.91-3.52,2.72-5.34C846.87,584.07,848.74,584.61,848.23,585.75Z"/><path class="cls-33" d="M989.23,559.65s-64.32-12.59-72.57-9.28C910.1,553,860.42,585,860.42,585l7.86,14.8s52.46-18.33,59.85-23.71c0,0,66.54,7,78.42-8.61Z"/><path class="cls-21" d="M968,472.58s-10.44,5.62-11.27,7.27-7,28.86-7,28.86h22.5l-2.48-31.34Z"/><path class="cls-34" d="M980.89,450.3,979,468.25a16.87,16.87,0,0,0,15.36,1.62l1.89-17.95Z"/><path class="cls-35" d="M977.67,425.35s-10,22.28-1.1,33.66c0,0,20.85,9,25.72-25.53Z"/><path class="cls-35" d="M999.27,442s3.35-4.35,5.36-2.3-2.27,11.55-7.84,11Z"/><path class="cls-21" d="M961.17,536.9,968,472.58l7.62-2.88,1.4-6c3.32,0,22.64-3.32,22.64-3.32l3.18,8.34c6.75.89,17.25,2.59,19.46,4.74L1018,534.69c1.26,4.26,3.74,12.72,4.35,15.57.83,3.86-6.13,9.39-6.13,9.39s-41.82.15-55.49-2.61a8.41,8.41,0,0,1-4.5-5.4C955.29,548.63,959,540.92,961.17,536.9Z"/><path class="cls-36" d="M965.25,499.21a13.81,13.81,0,0,1-2.16-7.9c0-1.06,1.69-1.07,1.66,0a12.09,12.09,0,0,0,1.26,5.82,139.73,139.73,0,0,1,3.07-16.05.83.83,0,0,1,1.6.44,136.72,136.72,0,0,0-3.93,24.28c-.07,1.06-1.73,1.07-1.66,0q.23-3.14.59-6.26A.8.8,0,0,1,965.25,499.21Z"/><path class="cls-36" d="M977.84,472.24c1,.21,1.91.36,2.86.48v-5.36a.83.83,0,0,1,1.66,0v5.38a.58.58,0,0,1,0,.14,30.53,30.53,0,0,0,9.3-.72l-.63-4.6c-.14-1,1.45-1.49,1.6-.44l.63,4.61c.88-.26,1.75-.54,2.61-.88l-.15-6.19a.83.83,0,0,1,1.65,0c0,1.83.1,3.66.14,5.48.42-.19.84-.36,1.25-.57.95-.48,1.79.95.84,1.43-.74.38-1.49.71-2.24,1a.79.79,0,0,1-.65.27,32.68,32.68,0,0,1-19.28,1.55C976.36,473.61,976.8,472,977.84,472.24Z"/><path class="cls-21" d="M1022.32,473.46s6.63,4.87,8.56,10.12,1.11,26.51,0,37.27c0,0,3.7,12.43,1.16,19.61s-42.43,13-42.43,13L984.11,528l32.08-3Z"/><polygon class="cls-37" points="920.34 543.54 981.69 543.54 976.71 500.82 915.36 500.82 920.34 543.54"/><path class="cls-15" d="M951.61,523.33a3.3,3.3,0,0,1-3.3-3.3,3.27,3.27,0,0,1,.72-2,5.23,5.23,0,0,0-1.38-.21,5.16,5.16,0,1,0,5.13,5.33A3.2,3.2,0,0,1,951.61,523.33Z"/><path class="cls-35" d="M978.94,519.94s3.85,1.46,4.84,3.12a11.23,11.23,0,0,1,1.28,2.89l4.17,1,.38,11s-7.65,1.55-8.76,1.88-9.67-1.74-10.12-1.94-7-9-7-9.75a31.72,31.72,0,0,1,1.53-4.79s5-.7,5.37-.45,9,2.6,9,2.6Z"/><path class="cls-36" d="M989,522.94a.83.83,0,0,1,.78-1,69.48,69.48,0,0,1,21.08,2.36c-.56-1.31-1.13-2.61-1.68-3.91-.36-.87-.78-2-.1-2.8a1.73,1.73,0,0,1,2-.46,76.19,76.19,0,0,1,3.58-30.75c.34-1,1.94-.58,1.6.44a75,75,0,0,0-3.47,31.06c1.31.63,2.6,1.28,3.91,1.92.95.46.12,1.89-.84,1.43l-2.69-1.32c-.45-.22-2.33-1.49-2.75-1-.18.19,1,2.4,1.11,2.72l1.17,2.73a.81.81,0,0,1,0,.48c.92.28,1.84.56,2.75.88s.57,1.94-.44,1.6a68.07,68.07,0,0,0-24.46-3.7,53.52,53.52,0,0,0,.38,20.22,54.65,54.65,0,0,0,26.43,1.31c1-.21,1.49,1.39.44,1.59a56.37,56.37,0,0,1-27.63-1.39.71.71,0,0,1-.75-.59A55.85,55.85,0,0,1,989,522.94Z"/><polygon class="cls-15" points="897.06 610.17 875.77 630.98 850.79 606.35 875.65 613.87 887.42 601.88 897.06 610.17"/><polygon class="cls-31" points="882.92 623.98 875.65 613.87 850.79 606.35 875.77 630.98 882.92 623.98"/><path class="cls-32" d="M874.86,609.91l-.36,5.87c-.08,1.25-2,.94-1.93-.3l.36-5.87C873,608.36,874.93,608.67,874.86,609.91Z"/><path class="cls-32" d="M871.85,608.47a63.77,63.77,0,0,1-.49,6.48,1,1,0,0,1-1.92-.3,60,60,0,0,0,.47-6C869.94,607.44,871.88,607.22,871.85,608.47Z"/><path class="cls-33" d="M1004.92,594.22c19-7.6,9.23-34,9.23-34-16.5-2.54-74.6-10.84-85.41-3.57-7.13,4.79-45.1,47-45.1,47l12.14,13.46c17.48-17.55,43.9-38.55,43.9-38.55s19.32,6,35.56,11.63C986.12,594,995.31,596.47,1004.92,594.22Z"/><path class="cls-30" d="M1005.27,442.37a18.57,18.57,0,0,0,3.1-11.48c-.41-4-2.88-7.95-6.66-9.37a35.19,35.19,0,0,0-5.9-1.16c-2-.37-4-1.16-5.12-2.83s-.73-4.39,1.14-5.13a13.88,13.88,0,0,0-7.92,3.63l1.14-5.19a11.1,11.1,0,1,0,4.33,21.77,11.46,11.46,0,0,1,4.91.11,5.59,5.59,0,0,1,3.74,2.69c1.08,2.09.34,4.61-.42,6.84C999.73,440.67,1003.08,440.9,1005.27,442.37Z"/><path class="cls-23" d="M1019.92,380.67a13.87,13.87,0,0,0-14.1-13.87,14.05,14.05,0,0,0-13.64,14.35,13.85,13.85,0,0,0,3.07,8.23,19.82,19.82,0,0,1,4.19,12.46V402h13.21v-.16a22,22,0,0,1,4.58-13A13.82,13.82,0,0,0,1019.92,380.67Z"/><path class="cls-24" d="M1005,384.77c-.12-2.06-.37-4.47-2.52-5.43-4.14-1.84-6.69,3.51-3.72,6.32a1.1,1.1,0,0,0,1.81-1c-.11-.88-1.24-1.54-.38-2.51a1.27,1.27,0,0,1,1.3-.31,1.86,1.86,0,0,1,1,.93,8.18,8.18,0,0,1,.4,3.41c0,1.44.07,2.87.1,4.3.07,2.87.14,5.73.2,8.6a1.06,1.06,0,0,0,2.12,0C1005.24,394.33,1005.28,389.53,1005,384.77Z"/><path class="cls-24" d="M1007.08,384.77c.11-2.06.36-4.47,2.51-5.43,4.14-1.84,6.69,3.51,3.72,6.32a1.1,1.1,0,0,1-1.81-1c.11-.88,1.24-1.54.38-2.51a1.26,1.26,0,0,0-1.3-.31,1.81,1.81,0,0,0-1,.93,8.18,8.18,0,0,0-.41,3.41c0,1.44-.07,2.87-.1,4.3-.07,2.87-.13,5.73-.2,8.6a1.06,1.06,0,0,1-2.11,0C1006.86,394.33,1006.81,389.53,1007.08,384.77Z"/><rect class="cls-38" x="997.32" y="396.72" width="17.45" height="6.21"/><path class="cls-38" d="M999.26,400.93h13.58a0,0,0,0,1,0,0v6.55a2.07,2.07,0,0,1-2.07,2.07h-9.44a2.07,2.07,0,0,1-2.07-2.07v-6.55A0,0,0,0,1,999.26,400.93Z"/><polygon class="cls-15" points="1024.91 365.98 1036.64 352.68 1041.55 360.5 1024.91 365.98"/><polygon class="cls-15" points="1019.48 365.98 1017.38 354.76 1023.28 355.37 1019.48 365.98"/><polygon class="cls-15" points="1024.46 372.83 1035.8 371.57 1034.76 377.41 1024.46 372.83"/><path class="cls-15" d="M474.81,266.1l1.39-4.1,1.38,4.1A22.14,22.14,0,0,0,488,278.45h0a22.13,22.13,0,0,0-10.37,12.36l-1.38,4.09-1.39-4.09a22.15,22.15,0,0,0-10.36-12.36h0A22.17,22.17,0,0,0,474.81,266.1Z"/><path class="cls-15" d="M922.78,294l1.38-4.1,1.38,4.1a22.14,22.14,0,0,0,10.37,12.35h0a22.13,22.13,0,0,0-10.37,12.36l-1.38,4.09-1.38-4.09a22.21,22.21,0,0,0-10.37-12.36h0A22.22,22.22,0,0,0,922.78,294Z"/><path class="cls-15" d="M453.38,297.74l1-2.84,1,2.84a15.33,15.33,0,0,0,7.19,8.57h0a15.4,15.4,0,0,0-7.19,8.57l-1,2.84-1-2.84a15.44,15.44,0,0,0-7.19-8.57h0A15.37,15.37,0,0,0,453.38,297.74Z"/><path class="cls-15" d="M898.14,269.88l1-2.84,1,2.84a15.37,15.37,0,0,0,7.19,8.57h0a15.37,15.37,0,0,0-7.19,8.57l-1,2.84-1-2.84a15.33,15.33,0,0,0-7.19-8.57h0A15.33,15.33,0,0,0,898.14,269.88Z"/><path class="cls-35" d="M955.47,436l1-2.84,1,2.84a15.33,15.33,0,0,0,7.19,8.57h0a15.33,15.33,0,0,0-7.19,8.57l-1,2.84-1-2.84a15.37,15.37,0,0,0-7.19-8.57h0A15.37,15.37,0,0,0,955.47,436Z"/><path class="cls-23" d="M366,457.31l1-2.84,1,2.84a15.33,15.33,0,0,0,7.19,8.57h0a15.33,15.33,0,0,0-7.19,8.57l-1,2.84-1-2.84a15.37,15.37,0,0,0-7.19-8.57h0A15.37,15.37,0,0,0,366,457.31Z"/><path class="cls-23" d="M341.13,430.92l1.52-4.48,1.51,4.48a24.27,24.27,0,0,0,11.36,13.54h0A24.3,24.3,0,0,0,344.16,458l-1.51,4.49L341.13,458a24.3,24.3,0,0,0-11.36-13.54h0A24.27,24.27,0,0,0,341.13,430.92Z"/></g></g></g></svg>