<svg xmlns="http://www.w3.org/2000/svg" xmlns:xlink="http://www.w3.org/1999/xlink" viewBox="0 0 1366 768"><defs><style>.cls-1{fill:none;}.cls-2{clip-path:url(#clip-path);}.cls-3,.cls-53{opacity:0.76;}.cls-3{fill:url(#linear-gradient);}.cls-4{fill:url(#linear-gradient-2);}.cls-5{fill:#a1eaf5;opacity:0.74;}.cls-6{fill:#33648a;}.cls-7{fill:#dff6f6;}.cls-8{fill:#e6e8ed;}.cls-35,.cls-8,.cls-9{opacity:0.5;}.cls-36,.cls-9{fill:#c3cbdb;}.cls-10{fill:#417de3;}.cls-11{fill:#123349;}.cls-12{fill:#2273a8;}.cls-13{fill:#fff;}.cls-14{fill:#66b6ee;}.cls-15{fill:#67c4c7;}.cls-16{fill:#efafc0;}.cls-17{fill:#f9b02b;}.cls-18{fill:#f29663;}.cls-19{opacity:0.25;}.cls-20{fill:#1e4360;}.cls-21{fill:#e89049;opacity:0.67;}.cls-22{fill:#1e394c;}.cls-23{fill:#e0e4ed;}.cls-24{fill:#edf1f6;}.cls-25{fill:#9292aa;}.cls-26{fill:#ffe396;}.cls-27{fill:#5e9efc;}.cls-28{fill:#165cc1;}.cls-29{fill:#3e79b5;}.cls-30{fill:#f3c450;}.cls-31{fill:#58a5ae;}.cls-32{fill:#a8a5c4;}.cls-33{fill:#cfccdf;}.cls-34{fill:#f7f7f7;}.cls-37{fill:#b7724a;}.cls-38{font-size:48.94px;fill:#3a558f;font-family:Montserrat-Bold, Montserrat;font-weight:700;}.cls-39{font-size:25px;fill:#999;font-family:Montserrat-Regular, Montserrat;}.cls-40{letter-spacing:-0.04em;}.cls-41{letter-spacing:0em;}.cls-42{letter-spacing:0.01em;}.cls-43{letter-spacing:-0.01em;}.cls-44{letter-spacing:-0.01em;}.cls-45{letter-spacing:-0.01em;}.cls-46{letter-spacing:-0.02em;}.cls-47{letter-spacing:0em;}.cls-48{letter-spacing:-0.02em;}.cls-49{letter-spacing:-0.01em;}.cls-50{letter-spacing:-0.01em;}.cls-51{letter-spacing:-0.07em;}.cls-52{letter-spacing:0em;}.cls-53{fill:url(#linear-gradient-3);}.cls-54{fill:#e6e6e6;}.cls-55{fill:url(#linear-gradient-4);}</style><clipPath id="clip-path"><rect class="cls-1" y="-1538" width="1366" height="3840"/></clipPath><linearGradient id="linear-gradient" x1="681.04" y1="-4.13" x2="683.93" y2="763.94" gradientUnits="userSpaceOnUse"><stop offset="0" stop-color="#dbeee9"/><stop offset="1" stop-color="#c8f0ee"/></linearGradient><linearGradient id="linear-gradient-2" x1="857.18" y1="22.5" x2="1468.5" y2="22.5" gradientUnits="userSpaceOnUse"><stop offset="0.07" stop-color="#55c595"/><stop offset="0.65" stop-color="#70dc95"/><stop offset="1" stop-color="#7be595"/></linearGradient><linearGradient id="linear-gradient-3" x1="676.73" y1="769.28" x2="688.49" y2="1539.6" xlink:href="#linear-gradient"/><linearGradient id="linear-gradient-4" x1="-328.36" y1="650.51" x2="445.8" y2="650.51" gradientUnits="userSpaceOnUse"><stop offset="0.42" stop-color="#215273"/><stop offset="0.46" stop-color="#235876"/><stop offset="0.82" stop-color="#308a93"/><stop offset="1" stop-color="#359d9e"/></linearGradient></defs><title>Artboard 3</title><g id="Layer_3" data-name="Layer 3"><g class="cls-2"><rect class="cls-3" x="-0.5" y="1" width="1366" height="767"/><path class="cls-4" d="M1463.61-287c-190.07,16.94-43.24,189.55-390.73,223.43s-218.62,442-8.16,391.2,403.78-48.4,403.78-48.4Z"/><path class="cls-5" d="M726.86,620H1052c72.47-50,119.86-132.35,119.86-225.61,0-152.42-126.46-297.88-282.45-297.88S607,242,607,394.39C607,487.65,654.38,570,726.86,620Z"/><rect class="cls-6" x="756.65" y="120.57" width="337.95" height="495.47" rx="11.97" transform="translate(1293.93 -557.32) rotate(90)"/><rect class="cls-7" x="694.45" y="215.88" width="453.15" height="304.84" rx="2.97"/><rect class="cls-8" x="706.07" y="233.85" width="363.85" height="17.61"/><rect class="cls-8" x="706.07" y="267.7" width="143.18" height="64.89"/><rect class="cls-8" x="706.07" y="347.76" width="143.18" height="64.89"/><rect class="cls-8" x="706.07" y="427.81" width="143.18" height="64.89"/><rect class="cls-8" x="861.95" y="267.7" width="272.25" height="225"/><circle class="cls-9" cx="732.17" cy="300.15" r="19.4"/><circle class="cls-9" cx="732.17" cy="380.2" r="19.4"/><circle class="cls-9" cx="732.17" cy="460.26" r="19.4"/><circle class="cls-10" cx="1117.98" cy="241.61" r="13.4" transform="translate(625.03 1273.72) rotate(-76.67)"/><path class="cls-11" d="M1167.79,374.18a7.72,7.72,0,1,1-7.72-7.72A7.72,7.72,0,0,1,1167.79,374.18Z"/><rect class="cls-12" x="877.02" y="285.99" width="242.86" height="108.55"/><polygon class="cls-13" points="1026.82 343.02 987.02 320.04 987.02 366 1026.82 343.02"/><rect class="cls-9" x="875.18" y="412.94" width="241.02" height="11.04"/><rect class="cls-9" x="875.18" y="435.01" width="241.02" height="11.04"/><rect class="cls-9" x="875.18" y="457.09" width="241.02" height="11.04"/><path class="cls-14" d="M867.68,297.47h74.17a6.59,6.59,0,0,1,6.59,6.58v42.49a6.59,6.59,0,0,1-6.59,6.59H887.8l-9.79,9v-9H867.68a6.58,6.58,0,0,1-6.58-6.59V304.05A6.58,6.58,0,0,1,867.68,297.47Z"/><path class="cls-15" d="M916.54,338.33l-.61.3a25.59,25.59,0,0,1-23.09,0l-.6-.3V320.49h24.3Z"/><path class="cls-13" d="M904.39,343.56a27.79,27.79,0,0,1-12.53-3l-.61-.31a2.18,2.18,0,0,1-1.2-1.95V320.49a2.19,2.19,0,0,1,2.19-2.19h24.3a2.18,2.18,0,0,1,2.18,2.19v17.84a2.18,2.18,0,0,1-1.2,1.95l-.6.31A28,28,0,0,1,904.39,343.56Zm-10-6.59a23.55,23.55,0,0,0,19.93,0v-14.3H894.42Z"/><polygon class="cls-15" points="904.39 309.75 881.19 318.98 904.39 328.22 927.58 318.98 904.39 309.75"/><path class="cls-13" d="M904.39,330.4a2.24,2.24,0,0,1-.81-.15L880.38,321a2.19,2.19,0,0,1,0-4.06l23.2-9.23a2.14,2.14,0,0,1,1.61,0l23.2,9.23a2.18,2.18,0,0,1,0,4.06l-23.2,9.24A2.22,2.22,0,0,1,904.39,330.4ZM887.1,319l17.29,6.88L921.67,319l-17.28-6.88Z"/><rect class="cls-13" x="921.17" y="321.46" width="2.37" height="23.64"/><path class="cls-16" d="M843.8,559.22l.24.82.47-15,7.18,1-1.87,13.25C849.53,560.66,845.22,559.52,843.8,559.22Z"/><path class="cls-16" d="M829.29,564.12l.25.81.47-15,7.18,1-1.87,13.25C835,565.55,830.72,564.41,829.29,564.12Z"/><path class="cls-17" d="M854,554.76l.85-3.8c2.72-12.28,11.55-53,11-61.26-.84-13.39-7.42-40.74-7.7-41.9l-2-8.22-16.45,4,2,8.22c.07.27,6.51,27.08,7.26,39,.13,4.51-5.43,32.88-10.67,56.55l-.86,3.8Z"/><path class="cls-18" d="M901.33,396.11c1.53-.7,2.17-2.44,3.06-3.9l.12-5.39a1,1,0,0,1,0-.38c.17-.44.87-.43,1.21-.09a2.35,2.35,0,0,1,.5,1.33,16.92,16.92,0,0,0,.5,1.89l.23-.21a13.89,13.89,0,0,1,3.61-2.34,6.18,6.18,0,0,1,4.23-.29.41.41,0,0,1,.21.69,1.45,1.45,0,0,1-.91.38,8.56,8.56,0,0,0-2.93,1.16c-.16.11,0,.41.15.34,2.57-1.13,4.18-.54,4.26-.41a.41.41,0,0,1-.11.45c-.2.22-.86.3-1.14.38a5.25,5.25,0,0,0-1.93,1s-.66.85,2.08-.27a1.36,1.36,0,0,1,1.06-.1.33.33,0,0,1,.15.11.33.33,0,0,1,.07.21.86.86,0,0,1-.28.63,2.76,2.76,0,0,1-.58.38l-3.06,1.63a25,25,0,0,1,2.68-.92.48.48,0,0,1,.35.13c.12.16,0,.38-.1.53-.75,1.07-3.51,2.61-4.66,3.22s-2.64.86-3.56,1.78a6.42,6.42,0,0,1-3.9,2.13C901.18,400.23,901.21,397.62,901.33,396.11Z"/><path class="cls-19" d="M824.41,435.12h32.94a0,0,0,0,1,0,0v9.5a17.6,17.6,0,0,1-17.6,17.6H824.41a0,0,0,0,1,0,0V435.12A0,0,0,0,1,824.41,435.12Z"/><path class="cls-20" d="M850.13,389.3s19.58,20.63,25.88,21S901.7,394,901.7,394l5.56,7.05s-24.47,28.55-34.48,25.58-23.53-22.88-23.53-22.88Z"/><path class="cls-17" d="M842.29,556.52l0-8.47c0-2.15.07-52.95-.42-60.82-.78-12.39-.78-34.85-.78-35.07V443.7H824.18v8.46c0,.94,0,23.21.82,36.13.38,6.08.41,45.18.38,59.74v8.46Z"/><path class="cls-20" d="M858.36,408.17c-.72-6.77-3.49-20.47-14.64-21.21-11.5-.78-18.48,8-20.52,14.26s-.14,41-.14,41l.32,5.16,34.46-.7.32-5.3S859.28,416.75,858.36,408.17Z"/><path class="cls-18" d="M837.4,371.31h10.7a0,0,0,0,1,0,0v20.64a2.78,2.78,0,0,1-2.78,2.78h-5.13a2.78,2.78,0,0,1-2.78-2.78V371.31A0,0,0,0,1,837.4,371.31Z"/><path class="cls-21" d="M837.4,375.39c1.42,3.67,4.51,9.33,10.7,10.72v-14.8h-9.67l-1,.45Z"/><path class="cls-18" d="M850.55,355.49h-2.46a8.86,8.86,0,0,0-8.86,8.86v8.39a9,9,0,0,0,9,9h4.36a6.86,6.86,0,0,0,6.86-6.86V364.35A8.86,8.86,0,0,0,850.55,355.49Z"/><path class="cls-18" d="M842.89,370.79a4.77,4.77,0,1,1-4.77-4.76A4.76,4.76,0,0,1,842.89,370.79Z"/><path class="cls-1" d="M839.34,366.62a33.82,33.82,0,0,1,.71,5.21.85.85,0,0,1,.82-.17"/><polygon class="cls-13" points="846.5 388.25 836.45 388.44 837.13 392.44 851.52 404.36 850.84 392.61 846.5 388.25"/><path class="cls-13" d="M837.4,385.46s5.38,3.83,10.82.79l.1,2,2.32,4.51-4.51-3.4-3.44,5.58-6.13-6.55Z"/><path class="cls-22" d="M840.72,362.57a9,9,0,0,0,1.88,3.69,35.52,35.52,0,0,0-.66,5c-.48,0-1.11-.09-1.59-.09a17.74,17.74,0,0,0-.81-4.67,14.64,14.64,0,0,0-3.23-.33,25.07,25.07,0,0,0-1.64-3.93,5.82,5.82,0,0,1-.46-2.24c-.22-1.77,1.16-3.43,2.53-4.57a7.64,7.64,0,0,1,5-1.77A28.38,28.38,0,0,1,859,350.06a6.83,6.83,0,0,1,2.48.72,5.56,5.56,0,0,1,2.27,3.05,6.65,6.65,0,0,1-.78,6.34c-1,1.24-2.86,1.49-4.46,1.33a14.32,14.32,0,0,1-2.94-.71l-6.49-2c-.18-.05-.41-.21-.33-.38A12.64,12.64,0,0,1,840.72,362.57Z"/><path class="cls-20" d="M835.73,562.62s-1.26-2.77.32-3a2.73,2.73,0,0,1,2.43.72l3.86,4.31,2,3.14-3.05-1.38Z"/><path class="cls-10" d="M829.58,561.29s1.29,3.08,2.61,2.53c.75-.32,2.07-2.84,3.06-2.48s4.82,3.17,6.27,3.9-3-4.93-3-4.93,3.77,3.86,5.07,4.52,12.23,3.34,12.52,6.73l-.15,2.2s-3.54,3.31-12,.59-13.21-3.17-14.73-3.75S828.37,561.39,829.58,561.29Z"/><path class="cls-23" d="M845.66,573.18c-4-.61-10.72-3.44-13.29-3.7a14.93,14.93,0,0,1-4-1c.11,1.13.37,2,.81,2.16,1.52.58,6.29,1,14.73,3.75s12-.59,12-.59l.15-2.2C855.11,573.32,849.68,573.79,845.66,573.18Z"/><path class="cls-24" d="M838,564.82a.54.54,0,0,1-.21-.05.42.42,0,0,1-.17-.57c0-.07,1-1.82,2.31-2.1a1.78,1.78,0,0,1,1.54.4.42.42,0,0,1-.52.66,1,1,0,0,0-.85-.24c-.79.16-1.52,1.26-1.74,1.67A.46.46,0,0,1,838,564.82Z"/><path class="cls-24" d="M839.26,566a.35.35,0,0,1-.2,0,.42.42,0,0,1-.18-.56c0-.08,1-1.83,2.31-2.1a1.8,1.8,0,0,1,1.55.4.41.41,0,0,1,.07.58.41.41,0,0,1-.59.07,1,1,0,0,0-.86-.24c-.78.17-1.52,1.27-1.74,1.68A.4.4,0,0,1,839.26,566Z"/><path class="cls-24" d="M840.86,566.81a.46.46,0,0,1-.2,0,.43.43,0,0,1-.17-.57c0-.07,1-1.82,2.3-2.1a1.84,1.84,0,0,1,1.55.4.42.42,0,1,1-.52.66,1,1,0,0,0-.85-.24c-.79.16-1.53,1.26-1.74,1.67A.46.46,0,0,1,840.86,566.81Z"/><path class="cls-24" d="M842.54,567.53a.35.35,0,0,1-.2,0,.41.41,0,0,1-.18-.56c0-.08,1-1.83,2.31-2.1a1.78,1.78,0,0,1,1.54.4.41.41,0,0,1-.51.65,1,1,0,0,0-.86-.24c-.79.17-1.52,1.27-1.74,1.68A.4.4,0,0,1,842.54,567.53Z"/><path class="cls-20" d="M850.31,556.69s-1.26-2.78.32-3a2.72,2.72,0,0,1,2.44.71l3.85,4.32,2,3.14-3.05-1.38Z"/><path class="cls-10" d="M844.16,555.36s1.29,3.08,2.62,2.52c.75-.31,2.07-2.83,3.05-2.47s4.82,3.17,6.27,3.9-3-4.94-3-4.94,3.77,3.87,5.06,4.52,12.23,3.34,12.52,6.74l-.15,2.2s-3.53,3.31-12,.58-13.21-3.17-14.73-3.75S843,555.46,844.16,555.36Z"/><path class="cls-23" d="M860.25,567.25c-4-.61-10.72-3.44-13.3-3.7a15.65,15.65,0,0,1-4-1c.11,1.13.36,2,.81,2.15,1.52.58,6.29,1,14.73,3.75s12-.58,12-.58l.15-2.2C869.7,567.39,864.26,567.86,860.25,567.25Z"/><path class="cls-24" d="M852.54,558.88a.35.35,0,0,1-.2,0,.41.41,0,0,1-.18-.56c0-.08,1-1.82,2.31-2.1a1.8,1.8,0,0,1,1.55.4.41.41,0,0,1,.07.58.41.41,0,0,1-.59.07,1,1,0,0,0-.86-.23c-.78.16-1.52,1.26-1.74,1.67A.4.4,0,0,1,852.54,558.88Z"/><path class="cls-24" d="M853.85,560.07a.54.54,0,0,1-.21-.05.42.42,0,0,1-.17-.57c0-.07,1-1.82,2.31-2.1a1.85,1.85,0,0,1,1.54.4.42.42,0,0,1-.52.66,1,1,0,0,0-.85-.24c-.79.17-1.52,1.27-1.74,1.68A.42.42,0,0,1,853.85,560.07Z"/><path class="cls-24" d="M855.45,560.87a.41.41,0,0,1-.21,0,.41.41,0,0,1-.17-.56c0-.08,1-1.82,2.31-2.1a1.78,1.78,0,0,1,1.54.4.42.42,0,1,1-.52.65,1,1,0,0,0-.85-.24c-.78.17-1.52,1.27-1.74,1.68A.41.41,0,0,1,855.45,560.87Z"/><path class="cls-24" d="M857.12,561.6a.39.39,0,0,1-.2-.05.42.42,0,0,1-.17-.57c0-.07,1-1.82,2.3-2.1a1.87,1.87,0,0,1,1.55.4.42.42,0,1,1-.52.66,1,1,0,0,0-.85-.24c-.79.17-1.53,1.27-1.74,1.68A.42.42,0,0,1,857.12,561.6Z"/><path class="cls-20" d="M836.56,388.39c-.8-1.66-12.25,4.53-14.14,7.84S811.06,420.62,810.35,422s-27.46,5.2-27.46,5.2l2.13,5.92s22.48.48,30.06-1.18,16.33-11.84,16.33-11.84S837.92,391.19,836.56,388.39Z"/><path class="cls-20" d="M805.6,428H771.09a3.36,3.36,0,0,1-3.25-2.5l-6.09-22.95a3.36,3.36,0,0,1,3.25-4.23h30.14a3.36,3.36,0,0,1,3.25,2.5Z"/><path class="cls-13" d="M771.09,426.33a1.69,1.69,0,0,1-1.62-1.25l-6.09-22.95A1.67,1.67,0,0,1,765,400h30.14a1.67,1.67,0,0,1,1.61,1.24l6.65,25.06Z"/><path class="cls-25" d="M815.42,428H770.78a1.31,1.31,0,0,1-1.31-1.31h0a1.32,1.32,0,0,1,1.31-1.32h44.64a1.31,1.31,0,0,1,1.31,1.32h0A1.31,1.31,0,0,1,815.42,428Z"/><path class="cls-18" d="M785.59,429.16c-.92-.7-2.18-.56-3.13-1.23a5.11,5.11,0,0,0-3.62-.66,7.66,7.66,0,0,1-.46-.7,2,2,0,0,0-.6-.78c-.29-.17-.75-.09-.83.23a.84.84,0,0,0,.06.47,3.61,3.61,0,0,1,.12,1c-.35,0-.7.07-1,.08-.39-.47-.76-1-1.14-1.45a1.86,1.86,0,0,0-.43-.41.59.59,0,0,0-.57-.06.8.8,0,0,0-.36.48,1.76,1.76,0,0,0-.12.85,3.9,3.9,0,0,1-.36-.25c-.43-.36-1.25-2.08-1.81-2a1.23,1.23,0,0,0-.93,1.22,2.78,2.78,0,0,0,1.28,2.3,8.11,8.11,0,0,0,2.52,1.05c1.88.55,4.11.55,6,1.1,2.24.65,4.17,1.86,6.51,1.85C786.55,431.34,786.3,429.69,785.59,429.16Z"/><polygon class="cls-15" points="848.1 390.02 845.7 388.26 845.26 388.27 843.99 392.22 846.98 393.71 847.15 400.74 851.52 404.36 851.25 399.69 848.2 394.12 848.1 390.02"/><path class="cls-10" d="M772.19,406.47l3.14,12h22.48l-2.75-11.92S772.09,406.6,772.19,406.47Z"/><polygon class="cls-13" points="786.5 412.15 783.36 410.53 784.16 413.76 786.5 412.15"/><path class="cls-26" d="M826,264.57H713.3a10,10,0,0,0-10,10v64.57a10,10,0,0,0,10,10h82.15l14.87,13.68V349.15H826a10,10,0,0,0,10-10V274.58A10,10,0,0,0,826,264.57Z"/><rect class="cls-13" x="723.41" y="282.57" width="92.51" height="5.44"/><rect class="cls-13" x="723.41" y="297.53" width="92.51" height="5.44"/><rect class="cls-13" x="723.41" y="312.5" width="92.51" height="5.44"/><rect class="cls-13" x="723.41" y="326.1" width="41.43" height="5.44"/><path class="cls-14" d="M1122,358.11h81.68a7.26,7.26,0,0,1,7.25,7.25v46.79a7.26,7.26,0,0,1-7.25,7.25h-59.52l-10.78,9.91V419.4H1122a7.26,7.26,0,0,1-7.25-7.25V365.36A7.26,7.26,0,0,1,1122,358.11Z"/><rect class="cls-13" x="1129.32" y="371.15" width="67.03" height="3.94"/><rect class="cls-13" x="1129.32" y="381.99" width="67.03" height="3.94"/><rect class="cls-13" x="1129.32" y="392.84" width="67.03" height="3.94"/><rect class="cls-13" x="1129.32" y="402.69" width="30.02" height="3.94"/><rect class="cls-20" x="1040.39" y="528.97" width="71.87" height="5.49" transform="translate(2152.65 1063.43) rotate(180)"/><rect class="cls-20" x="1072.83" y="534.32" width="8.48" height="16.47" transform="translate(2154.14 1085.1) rotate(180)"/><polygon class="cls-20" points="1025.41 573.75 1071.46 549.29 1076.82 549.29 1076.82 549.29 1077.07 549.29 1077.32 549.29 1077.32 549.29 1082.3 549.29 1128.72 573.75 1124.23 573.75 1077.07 559.84 1029.91 573.75 1025.41 573.75"/><path class="cls-18" d="M1048.74,449.26s-7.14-10.19-8.48-10.67-11.32-3.61-11.32-3.61-1,.66-.1,1.33,6.47,3.62,6.47,3.62-2.66,3.23-.85,5.23,7,2.86,7,2.86l6,6Z"/><path class="cls-20" d="M1021.42,563.35l-4.84,5.3-7.51,3.41c-3.74,1.52-2.38,3.36-2.38,3.36l20.59-1.55,1.56-7.08Z"/><path class="cls-27" d="M1117,446.71s-19.67-.83-25.46,28.39l-1.16,5A16.55,16.55,0,0,1,1075,492.91l-23.6.4a15.21,15.21,0,0,0-13.76,10.23l-6.41,18.37h-7.31s2,10.64,12.64,10.64h73.87s18.63,1.33,22-23.29S1147.65,445.38,1117,446.71Z"/><path class="cls-28" d="M1110.39,532.55h-73.87c-10.64,0-12.64-10.64-12.64-10.64h7.31l.2-.57h97.28C1122.17,533.38,1110.39,532.55,1110.39,532.55Z"/><path class="cls-29" d="M1126.23,507.6h-56.86c-28.48,0-37.54,5.21-45.49,14.31h92.18Z"/><path class="cls-18" d="M1029.35,546.08l-7.93,17.27-4.84,5.3a14.47,14.47,0,0,0,6.3.25,26.14,26.14,0,0,0,6-2.11l8.38-13.5,1-6.84Z"/><polygon class="cls-18" points="1041.81 553.04 1048.49 558.58 1046.88 567.8 1041.11 570.11 1050.8 569.88 1055.88 556.73 1050.33 549.84 1041.81 553.04"/><path class="cls-14" d="M1098.1,460.35s-19.45,10-23.44,10.15c0,0-5.82-6.16-7.82-8s-18.13-15.14-18.13-15.14l-4.26,4.46s17.64,22.75,21.06,26c6.49,6.15,13,2.83,15.64,2.66S1104.44,470,1104.44,470Z"/><path class="cls-17" d="M1039.25,558.35c-22.55-29.37-21.35-42.79-19.78-47.2a12.81,12.81,0,0,1,9.52-8.27c8.58-2,24.56-2.38,47.51-1,.67,0,1.13.07,1.33.07l-.17,14-2-.1c-27.62-1.63-38.83-.36-43.15.6-.44,4.88,7.72,20.31,17.8,33.44Z"/><path class="cls-30" d="M1037.22,553.29l-13-5c.59-1.53.8-1.92,1.86-4.81,16.34-44.87,16.55-39.11,24.12-39.11,3.57,0,9.49-.27,15.75-.55,8.25-.36,16.77-.74,21.12-.55l-.61,14c-3.73-.17-12.31.22-19.89.55-5.28.24-10.31.46-14.1.54-4.81,6.6-9.9,20.7-13.26,29.94C1038.08,551.23,1037.83,551.71,1037.22,553.29Z"/><path class="cls-18" d="M1109.46,456.46c4.85,2.14,17.6,5.15,18.5,10.38,2.26,13.17,2.63,37.08-38.41,43.22l-27.15-1.54s4.1-5.07,13.92-11.9c4-2.75,8.77-3.76,11-9.65,2.7-7.2,2.74-22.14,11.33-27Z"/><path class="cls-31" d="M1128,466.84c-.26-1.53-1.55-2.86-3.34-4a11.08,11.08,0,0,0-4.26,1.21c-2,1-3.89,2.41-6,3.31a14.44,14.44,0,0,1-10.47.26,13.8,13.8,0,0,1-3.92-2.22c-.7-.57-1.27-3-1.87-5-8,5.16-8.16,19.58-10.8,26.62-2.21,5.89-7,6.21-10.91,9a50.81,50.81,0,0,0-5.06,4c-1.37,3.21-2.6,4.6-2.5,8.06,0,.29,0,.59.06.89L1089,510a75.53,75.53,0,0,0,21.1-5.87C1130.33,494.42,1129.75,477.27,1128,466.84Z"/><polygon class="cls-30" points="1069.44 517.05 1094.1 517.27 1105.08 509.8 1073.66 497.95 1055.86 507.86 1069.44 517.05"/><path class="cls-14" d="M1089.31,498.25l-1.6,8.83c11.53,6.83,25.66,14.25,27.42,12,1.17-1.49,15.58-37.33,15.49-42.34s-1.74-10.18-5.39-13.64c-1.4.21-2.08,1.23-2.8,2.45-4,6.77-12.27,25-14.4,34.87C1102.57,499.31,1095.88,499.26,1089.31,498.25Z"/><path class="cls-10" d="M1132.35,509.26c1.47-10.9,4.64-24.67,5.05-36.52h0L1128.81,493a15.77,15.77,0,0,1-14.89,10.59h-6.66a14.51,14.51,0,0,0-13.42,9l-6.08,20h22.63S1129,533.88,1132.35,509.26Z"/><path class="cls-17" d="M1093,434.54a3.52,3.52,0,0,0-1.63,3.12c.17,1.25,1.28,2.18,1.46,3.42.25,1.75-1.35,3.1-2.27,4.59a7.31,7.31,0,0,0,.16,7.37,9,9,0,0,0,6.17,4,21,21,0,0,0,3.64.18c7.17-.08,14.35-.21,21.53-.48a4.83,4.83,0,0,0,2.07-.38,1.81,1.81,0,0,0,1-1.75c-.1-.75-.82-1.4-.6-2.12a1.59,1.59,0,0,1,.92-.86c1.91-.9,4.22-1.24,5.51-2.95a5.25,5.25,0,0,0,.94-2.46,7.74,7.74,0,0,0-3.8-7.72c-1.13-.61-2.41-.9-3.52-1.55-2.59-1.52-3.82-4.62-5.78-6.94a12.53,12.53,0,0,0-13.71-3.66c-1,.37-1.91.87-2.89,1.26a18.7,18.7,0,0,0-3.37,1.27c-.7.47-.7,1-1,1.72C1097,432.83,1094.69,433.28,1093,434.54Z"/><path class="cls-18" d="M1105.35,441.24h7.06a2.78,2.78,0,0,1,2.78,2.78v20.85a0,0,0,0,1,0,0h-12.62a0,0,0,0,1,0,0V444A2.78,2.78,0,0,1,1105.35,441.24Z" transform="translate(2217.76 906.12) rotate(180)"/><path class="cls-21" d="M1103.83,462.8a5.51,5.51,0,0,1-1.26-3.48V445.68H1114l1.21.53v4.29C1113.62,454.57,1110.3,460.72,1103.83,462.8Z"/><path class="cls-18" d="M1112.15,443.57a5.62,5.62,0,1,0,6-5.22A5.63,5.63,0,0,0,1112.15,443.57Z"/><path class="cls-18" d="M1104.37,424.94l2.9.2a10.46,10.46,0,0,1,9.71,11.15l-.67,9.87A10.57,10.57,0,0,1,1105,456l-5.14-.35a8.1,8.1,0,0,1-7.52-8.63l.85-12.34A10.45,10.45,0,0,1,1104.37,424.94Z"/><path class="cls-1" d="M1116.67,438.94a39.54,39.54,0,0,0-1.26,6.08,1,1,0,0,0-1-.27"/><path class="cls-32" d="M1077.22,506.19H1035V503.1h42.23a1.54,1.54,0,0,1,1.54,1.55h0A1.54,1.54,0,0,1,1077.22,506.19Z"/><path class="cls-33" d="M1065.63,506.19h-40.71a4,4,0,0,1-3.84-2.95l-7.19-27.07a4,4,0,0,1,3.84-5h35.55a4,4,0,0,1,3.84,2.95Z"/><path class="cls-33" d="M1017.73,471.18a4,4,0,0,0-3.84,5l7.19,27.07a3.92,3.92,0,0,0,1.34,2.06l24.75-34.12Z"/><path class="cls-13" d="M1041.65,491.08a2.44,2.44,0,0,1-2.48,3.2,4.45,4.45,0,0,1-4.1-3.2,2.44,2.44,0,0,1,2.49-3.19A4.44,4.44,0,0,1,1041.65,491.08Z"/><path class="cls-17" d="M1106.66,431.12c-1.62.35-3.25-.47-4.88-.77-3.49-.63-6.66,1.44-8.62,4.92-3.74-1.11-5.31-4.12-5-6.55.42-2.84,5.75-6.36,7.64-8.17a10.46,10.46,0,0,1,6.71-2.95,6.08,6.08,0,0,1,5.08,1.91c.6.69,1,1.57,1.68,2.18,1.19,1.1,2.83,1.09,4.33,1.28a11.13,11.13,0,0,1,6.57,3,10.19,10.19,0,0,1,3,7.41,13.18,13.18,0,0,1-1,4.31c-.54,1.34-1.33,2.72-2.55,3a9.46,9.46,0,0,1-1.41.11,3.78,3.78,0,0,0-2.33,1.2l.33-3.15a3.38,3.38,0,0,0,0-1.23c-.22-.73-.88-1.1-1.4-1.57-1.83-1.65-2-4.65-3.16-6.85-.7-1.35-1.28-1.79-2.14-.53A4.73,4.73,0,0,1,1106.66,431.12Z"/><path class="cls-13" d="M1116.15,446.93a1.25,1.25,0,0,0,1.15,1.36,1.28,1.28,0,0,0,1.33-1.2,1.24,1.24,0,0,0-1.14-1.36A1.29,1.29,0,0,0,1116.15,446.93Z"/><path class="cls-18" d="M1075,499.35a7.5,7.5,0,0,0,5.11,1.13c1.74-.4.84-3.36.21-5-2.17-.31-3.52-2.42-5.21-3.8a14.86,14.86,0,0,0-3.45-2,16.72,16.72,0,0,0-4.86-1.46,7.3,7.3,0,0,0-4.88,1.07.49.49,0,0,0,0,.85,1.76,1.76,0,0,0,1.16.13,10.09,10.09,0,0,1,3.71.35c.22.07.16.46-.07.43-3.28-.43-4.9.78-5,.95a.46.46,0,0,0,.27.47c.3.19,1.07.06,1.42,0a6.22,6.22,0,0,1,2.51.46s1,.75-2.45.39a1.59,1.59,0,0,0-1.23.23.49.49,0,0,0-.14.18.39.39,0,0,0,0,.26,1,1,0,0,0,.52.62,3.09,3.09,0,0,0,.8.24l4,.83a28.74,28.74,0,0,0-3.33-.15.52.52,0,0,0-.36.26c-.08.22.11.43.29.57,1.2,1,4.84,1.79,6.34,2.1S1073.67,498.63,1075,499.35Z"/><polygon class="cls-16" points="1089.31 498.25 1079.01 494.99 1077.66 500.41 1089.31 507.6 1089.31 498.25"/><path class="cls-20" d="M1041.11,570.11s-2,0-2.73.8,0,1.94,0,1.94l15.65-.43,5.3-15.23-3.45-.46-5.08,13.15Z"/><polygon class="cls-20" points="1128.72 573.75 1082.3 549.29 1077.32 549.29 1077.07 549.29 1077.07 559.84 1124.23 573.75 1128.72 573.75"/><path class="cls-13" d="M637.66,550.13h70.86a0,0,0,0,1,0,0v17.69a6.28,6.28,0,0,1-6.28,6.28H643.94a6.28,6.28,0,0,1-6.28-6.28V550.13A0,0,0,0,1,637.66,550.13Z"/><path class="cls-17" d="M769.91,548.79H639.45a1.79,1.79,0,0,0-1.79,1.79v23a1.79,1.79,0,0,0,1.79,1.79H769.91a13.32,13.32,0,1,0,0-26.63Z"/><path class="cls-13" d="M637.66,548.79H694a0,0,0,0,1,0,0v19.65a7,7,0,0,1-7,7h-42.4a7,7,0,0,1-7-7V548.79A0,0,0,0,1,637.66,548.79Z"/><path class="cls-9" d="M695.14,561.71c-.18-6.43-4.45-11.58-9.71-11.58H637.66v11.58Z"/><path class="cls-30" d="M634.9,572.76H683a10.9,10.9,0,0,0,11-9.92,10.65,10.65,0,0,0-10.62-11.38H634.9a1.34,1.34,0,0,1-1.33-1.34h0a1.34,1.34,0,0,1,1.33-1.33h48c7.09,0,13.28,5.35,13.74,12.43a13.31,13.31,0,0,1-13.28,14.2H634.9a1.33,1.33,0,0,1-1.33-1.33h0A1.33,1.33,0,0,1,634.9,572.76Z"/><rect class="cls-15" x="628.36" y="518.89" width="148.96" height="29.9" rx="0.3"/><rect class="cls-34" x="745.09" y="518.89" width="5.56" height="29.9" transform="translate(1495.73 1067.68) rotate(180)"/><rect class="cls-34" x="647.63" y="518.89" width="5.56" height="29.9" transform="translate(1300.82 1067.68) rotate(180)"/><rect class="cls-13" x="659.49" y="524.45" width="78.69" height="18.9" transform="translate(1397.67 1067.79) rotate(180)"/><path class="cls-10" d="M636.57,502.47a8.21,8.21,0,0,0,0,16.42H771.39V502.47Z"/><path class="cls-13" d="M736.63,502.47h34.75a0,0,0,0,1,0,0v12.12a4.31,4.31,0,0,1-4.31,4.31H740.94a4.31,4.31,0,0,1-4.31-4.31V502.47A0,0,0,0,1,736.63,502.47Z"/><path class="cls-13" d="M736.63,502.47h34.75a0,0,0,0,1,0,0v12.12a4.31,4.31,0,0,1-4.31,4.31H740.94a4.31,4.31,0,0,1-4.31-4.31V502.47A0,0,0,0,1,736.63,502.47Z"/><path class="cls-9" d="M771.39,510.57v-8.1H744.84a8.21,8.21,0,0,0-8.2,8.1Z"/><path class="cls-10" d="M773.09,517.25H743.43a6.72,6.72,0,0,1-6.78-6.12,6.57,6.57,0,0,1,6.55-7h29.89a.82.82,0,0,0,.82-.82h0a.82.82,0,0,0-.82-.82H743.48a8.39,8.39,0,0,0-8.47,7.66,8.22,8.22,0,0,0,8.19,8.76h29.89a.82.82,0,0,0,.82-.82h0A.82.82,0,0,0,773.09,517.25Z"/><path class="cls-13" d="M632,474.84H759a.26.26,0,0,1,.26.26v24.52a.26.26,0,0,1-.26.26H632a.26.26,0,0,1-.26-.26V475.1A.26.26,0,0,1,632,474.84Z"/><g class="cls-35"><path class="cls-36" d="M632,474.84H759c.14,0,.26.06.26.12V486c0,.06-.12.12-.26.12H632c-.14,0-.26-.06-.26-.12V475C631.71,474.9,631.83,474.84,632,474.84Z"/></g><polygon class="cls-10" points="694.02 493.28 701.22 486.62 708.42 493.28 708.42 480.15 694.02 480.15 694.02 493.28"/><path class="cls-17" d="M762.37,472.56H628.67a.31.31,0,0,0-.31.31v2H746.74a12.52,12.52,0,0,1,0,25H628.36v2.28a.31.31,0,0,0,.31.31h133.7a15,15,0,0,0,15-15h0A15,15,0,0,0,762.37,472.56Z"/><path class="cls-10" d="M759.26,446.27H640.32v26.62H759.26a13.31,13.31,0,1,0,0-26.62Z"/><path class="cls-13" d="M640.32,446.27v26.62h29.73a13.32,13.32,0,0,0,13.32-13.31h0a13.32,13.32,0,0,0-13.32-13.31Z"/><path class="cls-13" d="M640.32,446.27v26.62h29.73a13.32,13.32,0,0,0,13.32-13.31h0a13.32,13.32,0,0,0-13.32-13.31Z"/><path class="cls-9" d="M683.36,459.43a13.31,13.31,0,0,0-13.31-13.16H640.32v13.16Z"/><path class="cls-10" d="M637.57,470.23h34.77a10.9,10.9,0,0,0,11-9.92,10.66,10.66,0,0,0-10.63-11.38H637.57a1.34,1.34,0,0,1-1.34-1.33h0a1.33,1.33,0,0,1,1.34-1.33h34.69c7.09,0,13.28,5.35,13.74,12.42a13.31,13.31,0,0,1-13.29,14.2H637.57a1.33,1.33,0,0,1-1.34-1.33h0A1.34,1.34,0,0,1,637.57,470.23Z"/><path class="cls-37" d="M1117,432.84c-.79-.39-2.17-.39-2,.79,0,0,0,5.32.78,5.51"/><path class="cls-37" d="M877.53,360.86s-2.14,5.86-1.58,6.62"/><text class="cls-38" transform="translate(123.92 343.02)">LESSON</text><text class="cls-39" transform="translate(124.28 392.54)"><tspan class="cls-40">T</tspan><tspan x="13.53" y="0">reasure </tspan><tspan class="cls-41" x="111.8" y="0">o</tspan><tspan class="cls-42" x="127.3" y="0">f</tspan><tspan class="cls-43" x="136.02" y="0">f</tspan><tspan x="144.35" y="0">ers pri</tspan><tspan class="cls-44" x="221.05" y="0">v</tspan><tspan x="233.8" y="0">a</tspan><tspan class="cls-45" x="248.45" y="0">t</tspan><tspan x="258.47" y="0" xml:space="preserve">e online lessons  </tspan><tspan x="0" y="37">about JSP language </tspan><tspan class="cls-46" x="254.25" y="37">b</tspan><tspan class="cls-47" x="270.75" y="37">y </tspan><tspan class="cls-48" x="290.47" y="37">c</tspan><tspan x="304.05" y="37">ouse </tspan><tspan class="cls-49" x="368.9" y="37">s</tspan><tspan x="380.52" y="37">yllabus</tspan><tspan x="0" y="74">base on B.Sc.In</tspan><tspan class="cls-50" x="185.52" y="74">f</tspan><tspan x="193.85" y="74">ormation </tspan><tspan class="cls-51" x="315.97" y="74">T</tspan><tspan class="cls-52" x="328.7" y="74">echnology</tspan></text><rect class="cls-53" x="-1" y="759" width="1367" height="777"/><path class="cls-5" d="M485.17,272.88c0,22.64,18.75,41,41.89,41S571,294.76,571,272.11s-8.44-42.28-31.58-42.28S485.17,250.23,485.17,272.88Z"/><path class="cls-54" d="M524.53,242.74s-25.59,9.84-28.87,23.61,9.19,0,9.19,0l8.53-8.53,11.15-3.93S537,248,524.53,242.74Z"/><path class="cls-55" d="M331.19,701.46c-184.72-55.71-324-156.87-330-284a18.38,18.38,0,0,1-9-10.52C-11.27,396.48-11,385-10.67,374.12c.34-10.59-.14-21.16-.07-31.75A495.17,495.17,0,0,1-4.23,265a12.27,12.27,0,0,1,.42-1.74C-84.6,256.8-294.25,374.36-294.25,374.36s-79.08,639.82,3.59,661.38,133-118.61,133-118.61,32.35-131.2,192.31-118.62S171.24,920.72,284.46,944.08,557.64,769.75,331.19,701.46Z"/><path class="cls-5" d="M370.17,552.34c0,16.58,13.73,30,30.67,30s32.16-14,32.16-30.58-6.18-30.95-23.12-30.95S370.17,535.76,370.17,552.34Z"/><path class="cls-54" d="M399,530.28s-18.73,7.2-21.13,17.29,6.72,0,6.72,0l6.25-6.25,8.16-2.88S408.11,534.12,399,530.28Z"/><path class="cls-5" d="M140.17,186.41c0,28.19,23.34,51,52.15,51s54.68-23.8,54.68-52-10.51-52.63-39.31-52.63S140.17,158.22,140.17,186.41Z"/><path class="cls-54" d="M189.16,148.89s-31.85,12.25-35.93,29.4,11.43,0,11.43,0l10.62-10.62,13.88-4.9S204.67,155.42,189.16,148.89Z"/></g></g></svg>