<svg xmlns="http://www.w3.org/2000/svg" xmlns:xlink="http://www.w3.org/1999/xlink" viewBox="0 0 1366 768"><defs><style>.cls-1{fill:none;}.cls-2{clip-path:url(#clip-path);}.cls-3,.cls-4,.cls-5{opacity:0.76;}.cls-3{fill:url(#Degradado_sin_nombre_8);}.cls-4{fill:url(#Degradado_sin_nombre_8-2);}.cls-5{fill:url(#linear-gradient);}.cls-6{fill:#ffe396;}.cls-13,.cls-7{fill:#cce3eb;}.cls-7{opacity:0.43;}.cls-8{fill:#a8c4cc;}.cls-9{fill:#84aeb8;}.cls-10{fill:#60bbf2;}.cls-11{fill:#66b6ee;}.cls-12,.cls-21,.cls-22{fill:#33648a;}.cls-12{opacity:0.25;}.cls-14{fill:#f0bd75;}.cls-15,.cls-23{fill:#1e394c;}.cls-16{fill:#0e2a3e;}.cls-17,.cls-20{fill:#e89049;}.cls-18{fill:#f29663;}.cls-19{fill:#7fa7b0;}.cls-20{opacity:0.67;}.cls-21{opacity:0.29;}.cls-23{opacity:0.48;}.cls-24{fill:#3e8aca;}.cls-25{fill:#2273a8;}.cls-26{fill:#1a3651;}.cls-27{font-size:20px;}.cls-27,.cls-29{fill:#3a558f;font-family:Montserrat-Bold, Montserrat;font-weight:700;}.cls-28{fill:#b7724a;}.cls-29{font-size:48.94px;}.cls-30{letter-spacing:0em;}.cls-31{letter-spacing:-0.05em;}.cls-32{letter-spacing:-0.01em;}.cls-33{font-size:25px;fill:#999;font-family:Montserrat-Regular, Montserrat;}.cls-34{letter-spacing:-0.05em;}.cls-35{letter-spacing:-0.02em;}.cls-36{letter-spacing:0em;}.cls-37{letter-spacing:-0.01em;}.cls-38{letter-spacing:-0.02em;}.cls-39{letter-spacing:-0.02em;}.cls-40{fill:url(#linear-gradient-2);}.cls-41{fill:#a1eaf5;opacity:0.74;}.cls-42{fill:#e6e6e6;}.cls-43{fill:url(#linear-gradient-3);}</style><clipPath id="clip-path"><rect class="cls-1" y="-770.5" width="1366" height="3840"/></clipPath><linearGradient id="Degradado_sin_nombre_8" x1="314" y1="-64.51" x2="1465.04" y2="-64.51" gradientUnits="userSpaceOnUse"><stop offset="0" stop-color="#fff"/><stop offset="0.08" stop-color="#f7fbfa"/><stop offset="0.27" stop-color="#eaf3f2"/><stop offset="0.51" stop-color="#e2efed"/><stop offset="1" stop-color="#e0eeec"/></linearGradient><linearGradient id="Degradado_sin_nombre_8-2" x1="485.28" y1="90.84" x2="1569.12" y2="90.84" gradientTransform="translate(-88.76 -374.92) rotate(16.63)" xlink:href="#Degradado_sin_nombre_8"/><linearGradient id="linear-gradient" x1="680.56" y1="2.02" x2="683.44" y2="762.34" gradientUnits="userSpaceOnUse"><stop offset="0" stop-color="#dbeee9"/><stop offset="1" stop-color="#c8f0ee"/></linearGradient><linearGradient id="linear-gradient-2" x1="-1" y1="145.04" x2="323.75" y2="145.04" gradientUnits="userSpaceOnUse"><stop offset="0" stop-color="#215273"/><stop offset="0.33" stop-color="#27677f"/><stop offset="1" stop-color="#359d9e"/></linearGradient><linearGradient id="linear-gradient-3" x1="857.18" y1="790" x2="1468.5" y2="790" gradientUnits="userSpaceOnUse"><stop offset="0.07" stop-color="#55c595"/><stop offset="0.65" stop-color="#70dc95"/><stop offset="1" stop-color="#7be595"/></linearGradient></defs><title>Artboard 2</title><g id="Layer_3" data-name="Layer 3"><g class="cls-2"><path class="cls-3" d="M324.73,20s38-271.31,320.51-228.1,494.38,26.12,629-32.36,342.48,311.18,18.68,330.16S215.48,168.66,324.73,20Z"/><path class="cls-4" d="M1206.13,201.26c-300.3-69.48-1014.95,110.38-861-331.35,0,0,113.83-254.86,358.35-135.83s442.42,159.94,582,139.38,220.92,397.29-79.38,327.8"/><polyline class="cls-1" points="1365.91 -782.49 1365.91 60.42 123.3 60.42 123.3 -782.49"/><rect class="cls-5" x="-1" y="-1.5" width="1366" height="768"/><path class="cls-6" d="M249.73,581.23h239.7c53.42-36.82,88.35-97.56,88.35-166.3,0-112.36-93.22-219.59-208.2-219.59s-208.2,107.23-208.2,219.59C161.38,483.67,196.3,544.41,249.73,581.23Z"/><path class="cls-7" d="M589,581.85c0-4.78-98.24-8.65-219.42-8.65s-219.43,3.87-219.43,8.65,98.24,8.65,219.43,8.65S589,586.63,589,581.85Z"/><rect class="cls-8" x="288" y="477.78" width="9.98" height="95.46"/><rect class="cls-9" x="288" y="477.78" width="9.98" height="13.42"/><path class="cls-8" d="M250.73,573.28h87.65a3.81,3.81,0,0,1,3.81,3.81v5a0,0,0,0,1,0,0H246.93a0,0,0,0,1,0,0v-5A3.81,3.81,0,0,1,250.73,573.28Z"/><path class="cls-8" d="M269.32,477.88H338.5c-25.17-9-15.44-94.2-10.78-126.48A10.79,10.79,0,0,0,317,339.08H271a18.88,18.88,0,0,0-18.71,16.29c-4,29.33-10.41,90.15,2.21,113.69A16.86,16.86,0,0,0,269.32,477.88Z"/><path class="cls-10" d="M507.12,285.86H424.37a7.69,7.69,0,0,0-7.69,7.69v37.28a7.68,7.68,0,0,0,7.69,7.68h5.78v9a1.44,1.44,0,0,0,2.41,1.07l11.19-10.09h63.37a7.68,7.68,0,0,0,7.68-7.68V293.55A7.68,7.68,0,0,0,507.12,285.86Z"/><path class="cls-11" d="M236.16,386c0-9.12-6.45-18.27-14.4-18.27s-14.39,9.15-14.39,18.27,6.44,16.52,14.39,16.52S236.16,395.16,236.16,386Z"/><path class="cls-12" d="M221.76,367.76a10.51,10.51,0,0,0-3.69.7c6.16,2.27,10.7,9.92,10.7,17.57s-4.54,14.08-10.7,16a12.59,12.59,0,0,0,3.69.57c8,0,14.4-7.39,14.4-16.52S229.71,367.76,221.76,367.76Z"/><path class="cls-13" d="M205.36,396.83l2.58,23.35a5.76,5.76,0,0,0,5.73,5.13h14.88a5.76,5.76,0,0,0,5.73-5.13l2.58-23.35a2.14,2.14,0,0,0-2.13-2.38H207.49A2.14,2.14,0,0,0,205.36,396.83Z"/><path class="cls-8" d="M207.49,397.94h27.24a2.12,2.12,0,0,1,1.88,1.19l.25-2.3a2.14,2.14,0,0,0-2.13-2.38H207.49a2.14,2.14,0,0,0-2.13,2.38l.25,2.3A2.12,2.12,0,0,1,207.49,397.94Z"/><path class="cls-8" d="M234.73,394.45h-9.45a2.15,2.15,0,0,1,2.14,2.38l-2.58,23.35a5.76,5.76,0,0,1-5.73,5.13h9.44a5.76,5.76,0,0,0,5.73-5.13l2.58-23.35A2.14,2.14,0,0,0,234.73,394.45Z"/><polygon class="cls-14" points="354 559.15 353.03 565.9 358.16 572.47 371.19 566.1 372.6 559.92 356.39 557.47 354 559.15"/><path class="cls-15" d="M364.52,580.87l1.34-1.66a.63.63,0,0,1,1,0l1.35,1.58a2.82,2.82,0,0,0,2.19,1l30.26-.52a1.62,1.62,0,0,0,.06-2.28c-4.44-4.48-28.31-12.22-29.5-12.87s-8.49,5-18.16-.2a102.9,102.9,0,0,0-1.8,12.49,3.45,3.45,0,0,0,3.5,3.64l7.68-.13A2.76,2.76,0,0,0,364.52,580.87Z"/><path class="cls-15" d="M298.46,445.09s-12.56,13.89,10.45,29c16.14,10.59,28.86,7.35,39,13.77a8.57,8.57,0,0,1,4.35,6.56l.51,64.94L354,560a22.3,22.3,0,0,0,19.4.21h0l9.16-74.1c.33-5.11-2.43-9.41-5.59-13.44-17.6-22.38-48.75-30-56.64-31.26C310.08,439.69,298.46,445.09,298.46,445.09Z"/><polygon class="cls-14" points="303.96 559.14 302.89 565.88 307.94 572.52 321.05 566.32 322.54 560.17 306.37 557.5 303.96 559.14"/><path class="cls-15" d="M314.18,581l1.36-1.65a.64.64,0,0,1,1,0l1.33,1.6a2.76,2.76,0,0,0,2.17,1l30.27-.1a1.63,1.63,0,0,0,.09-2.29c-4.38-4.53-28.14-12.6-29.32-13.27s-8.56,4.91-18.16-.44a102,102,0,0,0-2,12.46,3.45,3.45,0,0,0,3.44,3.69l7.68,0A2.79,2.79,0,0,0,314.18,581Z"/><path class="cls-15" d="M260.26,433s-15.22,17,6.79,36.14c15.45,13.44,29.31,7.69,39,15.9,2.28,1.92,3.85,4.53,3.63,7.51l-7,66.06.53.34a20.93,20.93,0,0,0,20.3,1.38h0L340.8,490.7c1.08-5.32-1.2-10.24-3.95-14.92-15.27-26-39.26-41.58-47.37-44.07C279,428.47,260.26,433,260.26,433Z"/><path class="cls-16" d="M344.26,486a31.52,31.52,0,0,0-3.54-1.23,30.3,30.3,0,0,0-3.87-9,119.21,119.21,0,0,0-26.16-30.67c5.52-.93,8.33-2.11,9.85-3.67a104.9,104.9,0,0,1,16.53,4.49C344.56,458.43,344.54,478.75,344.26,486Z"/><path class="cls-13" d="M301.26,343.17s-22-2.93-31.09,14.18-22.75,84.19-10.84,86.23c5.28.91,19.35,4.45,34.94,3.31,21.44-1.57,26.1-3.55,27.64-7.62l13.66-62.51a26.43,26.43,0,0,0-10.37-22.07A74.28,74.28,0,0,0,301.26,343.17Z"/><path class="cls-8" d="M335.48,371.26s.29,37.65,12.12,39.93S391,412.76,391,412.76v12H323.36Z"/><path class="cls-17" d="M319.12,354.18l2.66-13.31-17.27-13.16-3.31,15.7S306.65,367.38,319.12,354.18Z"/><path class="cls-15" d="M341.15,315.49s-9,4.4-22.28-3.67c0,0-3.07,5.52-11.94,10.45,0,0-4.61-7.73-7.26-1.94a12.31,12.31,0,0,0-1.22,4.73c-8.31-10.73-2.45-24.87,5.3-32.49,7.34-7.24,23.23-4.36,33.16-.37,10.53,4.24,12.47-3.14,12.47-3.14C362.69,307.82,341.15,315.49,341.15,315.49Z"/><path class="cls-18" d="M306.93,322.27s-4.61-7.73-7.26-1.94c-3.22,7,.41,11.43,4.77,11.43,0,0,3.46,18.27,20.24,17s19.21-28.24,16.47-33.24c0,0-9,4.39-22.28-3.68C318.87,311.81,315.81,317.34,306.93,322.27Z"/><path class="cls-13" d="M452.42,365H382.35a7.28,7.28,0,0,0-7.12,5.82l-9.32,45.72H450.8l8.74-42.82A7.27,7.27,0,0,0,452.42,365Z"/><rect class="cls-19" x="331.28" y="416.53" width="122.71" height="8.04" rx="2.28"/><path class="cls-8" d="M450.53,416.53H365a3.46,3.46,0,0,1,3.46,3.46v1.12a3.46,3.46,0,0,1-3.46,3.46h85.55a3.46,3.46,0,0,0,3.46-3.46V420A3.46,3.46,0,0,0,450.53,416.53Z"/><path class="cls-13" d="M338.48,414.08c-13.64-1.59-51.91-5.49-58.47-6.17-8.27-.86,9.7-34.23,11.69-45.63s-6.7-11.84-6.7-11.84c-4.91-.61-10.27,0-14.83,6.91-9.34,14.15-19.74,55.49-14.26,65.7a3.68,3.68,0,0,0,3.26,1.93h79.31Z"/><path class="cls-8" d="M338.48,414.08s-49.27-3.39-59.9-4.82c-8.24-1.1,8.94-35.29,10.94-46.7s-6.85-10.93-6.85-10.93a21.12,21.12,0,0,0-7.69.72c3.3-2.17,6.75-2.31,10-1.92,0,0,8.69.44,6.69,11.85s-17.39,44.06-12.19,45.34C285.91,409.2,324.83,412.49,338.48,414.08Z"/><path class="cls-18" d="M338.48,425.16h18.37a1.73,1.73,0,0,0,1.46-2.68c-1.72-2.64-4.44-6.38-6.43-7-1.19-.38-10.12-.05-13.4.3Z"/><path class="cls-20" d="M341.15,315.49a14.82,14.82,0,0,1-4.16,1c-.23,1.25-.63,3.64-.84,5.91-.31,3.23,1.3,13.23.3,13.31a28.13,28.13,0,0,1-3.08-.08s-1.53,14.48-16,12.17l-.37-.06a18.19,18.19,0,0,0,7.69,1C341.47,347.44,343.89,320.49,341.15,315.49Z"/><path class="cls-11" d="M551.81,525.75S574.9,514.3,568.62,497s-10.16-18.1,1.84-27.89,29.37-34.35,7.39-36.19S557,460.2,538.7,464.26,510.45,544.77,551.81,525.75Z"/><path class="cls-12" d="M533.65,527.47c4.43,2.06,10.39,1.86,18.16-1.72,0,0,23.09-11.45,16.81-28.8s-10.16-18.1,1.84-27.89,29.37-34.35,7.39-36.19a20.19,20.19,0,0,0-5.86.31c6.19,2.57,12.34,7.67,4.39,17.1-13.24,15.7-20.32,21.24-18.78,31.4C559.1,491.59,558.24,514.08,533.65,527.47Z"/><path class="cls-11" d="M512.67,525.2s-20.32-.74-19.21-15.33,1.67-15.16-11.08-19.76c-22.53-8.12-4.69-51.39,13.67-24.19,12.74,18.88,18.28,14.64,26.59,16.11S549,531.66,512.67,525.2Z"/><path class="cls-21" d="M522.64,482c-8.31-1.47-13.85,2.77-26.59-16.11-9.61-14.24-19.07-9.16-22.68.07,5.41-1.65,13.62-2.65,14.64,6.15,1.33,11.41,28,30.15,27.49,53.45l1,.09c3.88-10.25,9-23.54,13.4-34.86C527.59,485.94,524.79,482.42,522.64,482Z"/><path class="cls-22" d="M517.37,524.55s-25.2-24.65-16.61-28.81,25.48,9.42,16.06-5.26-20.38-37.55-7.36-33.94,14,7.55,12.35-9.55c-2.09-22.11,10.25-33.51,21.88-26.31s-10,55.95-1.94,50.69,14.68-9.69,16.34-3.32-23,31.38-13.85,27.14c11.36-5.26,13,4.16,9.42,10S535.1,545.6,517.37,524.55Z"/><path class="cls-23" d="M553.66,505.16c3.6-5.81,1.94-15.23-9.42-10-9.15,4.24,15.51-20.77,13.85-27.14s-8.31-1.94-16.34,3.32,13.57-43.49,1.94-50.69c-5.41-3.35-11-2.63-15.15,1.27,6,1.47,10.85,6.32,7.5,19.4-7.08,27.71-11.39,50.8,1.54,44,12.18-6.38-14.14,23-14.41,44.21C538.28,538.23,550.46,510.33,553.66,505.16Z"/><path class="cls-13" d="M499.92,527.44l4.88,44.17a10.89,10.89,0,0,0,10.83,9.7h28.15a10.9,10.9,0,0,0,10.84-9.7l4.87-44.17a4.05,4.05,0,0,0-4-4.5H504A4.06,4.06,0,0,0,499.92,527.44Z"/><path class="cls-8" d="M555.46,522.94H537.6a4.06,4.06,0,0,1,4,4.5l-4.88,44.17a10.9,10.9,0,0,1-10.83,9.7h17.85a10.9,10.9,0,0,0,10.84-9.7l4.87-44.17A4.05,4.05,0,0,0,555.46,522.94Z"/><rect class="cls-24" x="192.69" y="425.02" width="314.15" height="14.26" rx="4.04"/><path class="cls-25" d="M500.71,425H198.82a6.13,6.13,0,0,0-6.13,6.14v2A6.3,6.3,0,0,0,193,435a6.14,6.14,0,0,1,5.82-4.28H500.71a6.12,6.12,0,0,1,5.81,4.28,6,6,0,0,0,.32-1.86v-2A6.14,6.14,0,0,0,500.71,425Z"/><polygon class="cls-22" points="294.24 581.52 284.15 581.52 213.96 439.35 224.05 439.35 294.24 581.52"/><polygon class="cls-22" points="183.15 581.52 193.24 581.52 263.44 439.35 253.35 439.35 183.15 581.52"/><polygon class="cls-22" points="511.56 581.52 501.47 581.52 431.28 439.35 441.37 439.35 511.56 581.52"/><polygon class="cls-22" points="400.48 581.52 410.57 581.52 480.76 439.35 470.67 439.35 400.48 581.52"/><polygon class="cls-26" points="226.83 444.99 224.05 439.35 213.96 439.35 216.74 444.99 226.83 444.99"/><polygon class="cls-26" points="260.66 444.99 263.44 439.35 253.35 439.35 250.57 444.99 260.66 444.99"/><polygon class="cls-26" points="444.15 444.99 441.37 439.35 431.28 439.35 434.06 444.99 444.15 444.99"/><polygon class="cls-26" points="477.98 444.99 480.76 439.35 470.67 439.35 467.89 444.99 477.98 444.99"/><text class="cls-27" transform="translate(447.32 319.3)">JSP</text><path class="cls-28" d="M340.37,328.55c-.32-.95-1.89-.95-2.84.31,0,0-2.14,5.86-1.58,6.62"/><text class="cls-29" transform="translate(634.92 333.02)">ONLINE P<tspan class="cls-30" x="236.93" y="0">L</tspan><tspan class="cls-31" x="264.49" y="0">A</tspan><tspan class="cls-32" x="299.53" y="0">Y</tspan><tspan x="332.13" y="0">GROUND</tspan></text><text class="cls-33" transform="translate(635.28 382.54)"><tspan class="cls-34">W</tspan><tspan x="24.55" y="0">e are the first </tspan><tspan class="cls-35" x="193.3" y="0">w</tspan><tspan class="cls-36" x="215.12" y="0">ebsi</tspan><tspan class="cls-37" x="265.67" y="0">t</tspan><tspan x="275.7" y="0">e that pr</tspan><tspan class="cls-35" x="381.87" y="0">o</tspan><tspan x="397" y="0">vides the best </tspan><tspan x="0" y="37">e</tspan><tspan class="cls-38" x="14.7" y="37">n</tspan><tspan x="30.88" y="37">vironment </tspan><tspan class="cls-37" x="167.12" y="37">t</tspan><tspan x="177.15" y="37">o p</tspan><tspan class="cls-39" x="216.22" y="37">r</tspan><tspan x="225.55" y="37">acti</tspan><tspan class="cls-39" x="271.57" y="37">c</tspan><tspan x="285.15" y="37">e </tspan><tspan class="cls-35" x="306.3" y="37">y</tspan><tspan x="319.07" y="37">our prog</tspan><tspan class="cls-39" x="425.8" y="37">r</tspan><tspan x="435.12" y="37">amming skills </tspan><tspan x="0" y="74">in JSP language</tspan></text><path class="cls-40" d="M323.67-2.42S325,13.3,317,40.9c0,0-7.4,49.09-43.94,76.85,0,0-21.57,25.41-70.31,42.58l-60.14,21.58-20.79,6.59-12.08,7L88.11,209.07,72.72,220,52.8,234.89,44.27,243,24.84,262.5,12.68,276l-8.63,9.5-5,7L-1-.42Z"/><path class="cls-41" d="M1113,188.44c0,34.52-28.59,62.51-63.86,62.51s-67-29.15-67-63.67,12.87-64.45,48.14-64.45S1113,153.92,1113,188.44Z"/><path class="cls-42" d="M1053,142.5s39,15,44,36-14,0-14,0l-13-13-17-6S1034,150.5,1053,142.5Z"/><path class="cls-41" d="M1154.84,552.24a23.51,23.51,0,0,1-23.76,23.26c-13.12,0-24.91-10.85-24.91-23.69s4.78-24,17.91-24S1154.84,539.4,1154.84,552.24Z"/><path class="cls-42" d="M1132.52,535.15s14.51,5.58,16.37,13.39-5.21,0-5.21,0l-4.83-4.83-6.33-2.23S1125.45,538.13,1132.52,535.15Z"/><path class="cls-41" d="M593.18,209.44c0,17.15-14.21,31.06-31.73,31.06S528.17,226,528.17,208.86s6.39-32,23.92-32S593.18,192.28,593.18,209.44Z"/><path class="cls-42" d="M563.37,186.61s19.38,7.45,21.86,17.89-7,0-7,0L571.82,198l-8.45-3S553.93,190.58,563.37,186.61Z"/><path class="cls-43" d="M1463.61,480.5c-190.07,16.94-43.24,189.55-390.73,223.43s-218.62,442-8.16,391.2,403.78-48.4,403.78-48.4Z"/></g></g></svg>